<svg width="134" height="66" viewBox="0 0 134 66" fill="none" xmlns="http://www.w3.org/2000/svg">
<mask id="path-1-outside-1_1_14" maskUnits="userSpaceOnUse" x="0" y="11" width="133" height="28" fill="black">
<rect fill="white" y="11" width="133" height="28"/>
<path d="M1.44141 37V12.3906H4.5V33.9766H14.6602V37H1.44141ZM16.6289 31.7969V23.1133C16.6289 22.0117 17.1211 20.9336 18.1055 19.8789C19.3242 18.6133 20.8477 17.9805 22.6758 17.9805V20.8281C21.293 20.8281 20.332 21.4023 19.793 22.5508C19.6289 22.9023 19.5469 23.2539 19.5469 23.6055V31.3398C19.5469 32.207 19.9453 32.9453 20.7422 33.5547C21.3047 33.9766 21.9492 34.1875 22.6758 34.1875V37.0352C20.4492 37.0352 18.7266 36.1328 17.5078 34.3281C16.9219 33.4375 16.6289 32.5938 16.6289 31.7969ZM24.1875 37.0352V34.1875C25.4297 34.1875 26.3203 33.625 26.8594 32.5C27.0469 32.125 27.1406 31.7617 27.1406 31.4102V23.6055C27.1406 22.6445 26.7305 21.8828 25.9102 21.3203C25.3945 20.9922 24.8086 20.8281 24.1523 20.8281V17.9805C26.3086 17.9805 27.9727 18.8594 29.1445 20.6172C29.7305 21.4844 30.0234 22.3164 30.0234 23.1133V31.7969C30.0234 32.9453 29.5312 34.0586 28.5469 35.1367C27.3984 36.3789 25.9453 37.0117 24.1875 37.0352ZM32.168 22.4102V19.5273H34.4883V17.4883C34.4883 16.1758 34.9219 14.9805 35.7891 13.9023C36.75 12.7773 37.9922 12.2031 39.5156 12.1797H40.8164L40.1484 15.0273H39.4805C38.1445 15.0977 37.4648 15.918 37.4414 17.4883V19.5625L39.832 19.5273V22.4102H37.4414V37H34.4883V22.4102H32.168ZM41.8008 21.0391V18.1914H44.1211V12.1094H47.1094V18.1914H49.3594V21.0742H47.1094V31.1641C47.1094 32.8281 47.7891 33.7539 49.1484 33.9414C49.4062 33.9883 49.6641 34.0117 49.9219 34.0117H50.4141L51.082 37H49.8164C46.9336 36.9766 45.1641 35.8984 44.5078 33.7656C44.2734 32.9688 44.1562 31.9844 44.1562 30.8125L44.1211 21.0391H41.8008ZM52.6641 37V12.3906H55.7227V23.1133H58.8867V26.1016H55.7227V37H52.6641ZM60.6445 26.1016V23.1133H63.7734V12.3906H66.8672V37H63.7734V26.1016H60.6445ZM69.6094 31.7969V23.1133C69.6094 22.0117 70.1016 20.9336 71.0859 19.8789C72.3047 18.6133 73.8281 17.9805 75.6562 17.9805V20.8281C74.2734 20.8281 73.3125 21.4023 72.7734 22.5508C72.6094 22.9023 72.5273 23.2539 72.5273 23.6055V31.3398C72.5273 32.207 72.9258 32.9453 73.7227 33.5547C74.2852 33.9766 74.9297 34.1875 75.6562 34.1875V37.0352C73.4297 37.0352 71.707 36.1328 70.4883 34.3281C69.9023 33.4375 69.6094 32.5938 69.6094 31.7969ZM77.168 37.0352V34.1875C78.4102 34.1875 79.3008 33.625 79.8398 32.5C80.0273 32.125 80.1211 31.7617 80.1211 31.4102V23.6055C80.1211 22.6445 79.7109 21.8828 78.8906 21.3203C78.375 20.9922 77.7891 20.8281 77.1328 20.8281V17.9805C79.2891 17.9805 80.9531 18.8594 82.125 20.6172C82.7109 21.4844 83.0039 22.3164 83.0039 23.1133V31.7969C83.0039 32.9453 82.5117 34.0586 81.5273 35.1367C80.3789 36.3789 78.9258 37.0117 77.168 37.0352ZM85.6758 31.9375V18.0156H88.6641V31.5859C88.6641 32.4297 89.0859 33.1328 89.9297 33.6953C90.4922 34.0469 91.1133 34.2227 91.793 34.2227V37.1758C89.543 37.1758 87.8086 36.2969 86.5898 34.5391C85.9805 33.6484 85.6758 32.7812 85.6758 31.9375ZM93.3398 37.1758V34.2227C94.6055 34.2227 95.5312 33.7188 96.1172 32.7109C96.3281 32.3359 96.4336 31.9609 96.4336 31.5859V18.0156H99.4219V31.9375C99.4219 33.0391 98.918 34.1289 97.9102 35.207C96.6914 36.4961 95.168 37.1523 93.3398 37.1758ZM101.461 32.0078L104.238 31.4805C104.238 32.5352 104.789 33.3672 105.891 33.9766C106.43 34.2344 106.945 34.375 107.438 34.3984V37.1758C105.164 37.1758 103.465 36.3555 102.34 34.7148C101.754 33.8477 101.461 32.9453 101.461 32.0078ZM101.637 23.3594C101.637 21.2266 102.609 19.6445 104.555 18.6133C105.492 18.1211 106.43 17.875 107.367 17.875V20.6172C106.289 20.6172 105.457 21.0625 104.871 21.9531C104.566 22.3984 104.414 22.8672 104.414 23.3594C104.414 24.1094 105 24.7188 106.172 25.1875C107.062 25.5625 108.785 26.0547 111.34 26.6641C112.934 26.9922 114.07 27.7773 114.75 29.0195C115.102 29.6758 115.277 30.4141 115.277 31.2344C115.277 33.4844 114.375 35.1484 112.57 36.2266C111.516 36.8594 110.309 37.1758 108.949 37.1758V34.3984C110.027 34.3984 110.93 34.0234 111.656 33.2734C112.172 32.7344 112.43 32.1016 112.43 31.375C112.43 30.4375 111.504 29.6875 109.652 29.125C109.184 28.9844 108.434 28.7852 107.402 28.5273C106.301 28.2695 105.504 28.0586 105.012 27.8945C103.23 27.1914 102.152 26.125 101.777 24.6953C101.684 24.2734 101.637 23.8281 101.637 23.3594ZM108.914 20.6523V17.875C110.93 17.875 112.559 18.625 113.801 20.125C114.574 21.0859 114.961 22.0938 114.961 23.1484L112.184 23.6055C112.184 22.3164 111.48 21.4141 110.074 20.8984C109.652 20.7344 109.266 20.6523 108.914 20.6523ZM117.352 31.7969V23.0781C117.375 22 117.891 20.9336 118.898 19.8789C120.117 18.6367 121.594 18.0039 123.328 17.9805V20.7578C122.203 20.7578 121.324 21.25 120.691 22.2344C120.434 22.6562 120.305 23.043 120.305 23.3945V25.7852H128.18V23.3945C128.18 22.3398 127.641 21.5664 126.562 21.0742C126.07 20.8398 125.566 20.7227 125.051 20.7227V17.9805C126.668 17.9805 128.109 18.5547 129.375 19.7031C130.43 20.7109 130.969 21.8242 130.992 23.043V28.6328H120.305V31.7969C120.305 32.4531 120.68 33.0625 121.43 33.625C122.039 34.0469 122.684 34.2578 123.363 34.2578V37C121.23 37 119.555 36.1328 118.336 34.3984C117.68 33.4844 117.352 32.6172 117.352 31.7969ZM125.051 37V34.2227C126.457 34.2227 127.512 33.6133 128.215 32.3945C128.355 32.1367 128.461 31.8906 128.531 31.6562L131.027 32.5703C130.605 34.1875 129.645 35.4062 128.145 36.2266C127.184 36.7422 126.152 37 125.051 37Z"/>
</mask>
<path d="M1.44141 37V12.3906H4.5V33.9766H14.6602V37H1.44141ZM16.6289 31.7969V23.1133C16.6289 22.0117 17.1211 20.9336 18.1055 19.8789C19.3242 18.6133 20.8477 17.9805 22.6758 17.9805V20.8281C21.293 20.8281 20.332 21.4023 19.793 22.5508C19.6289 22.9023 19.5469 23.2539 19.5469 23.6055V31.3398C19.5469 32.207 19.9453 32.9453 20.7422 33.5547C21.3047 33.9766 21.9492 34.1875 22.6758 34.1875V37.0352C20.4492 37.0352 18.7266 36.1328 17.5078 34.3281C16.9219 33.4375 16.6289 32.5938 16.6289 31.7969ZM24.1875 37.0352V34.1875C25.4297 34.1875 26.3203 33.625 26.8594 32.5C27.0469 32.125 27.1406 31.7617 27.1406 31.4102V23.6055C27.1406 22.6445 26.7305 21.8828 25.9102 21.3203C25.3945 20.9922 24.8086 20.8281 24.1523 20.8281V17.9805C26.3086 17.9805 27.9727 18.8594 29.1445 20.6172C29.7305 21.4844 30.0234 22.3164 30.0234 23.1133V31.7969C30.0234 32.9453 29.5312 34.0586 28.5469 35.1367C27.3984 36.3789 25.9453 37.0117 24.1875 37.0352ZM32.168 22.4102V19.5273H34.4883V17.4883C34.4883 16.1758 34.9219 14.9805 35.7891 13.9023C36.75 12.7773 37.9922 12.2031 39.5156 12.1797H40.8164L40.1484 15.0273H39.4805C38.1445 15.0977 37.4648 15.918 37.4414 17.4883V19.5625L39.832 19.5273V22.4102H37.4414V37H34.4883V22.4102H32.168ZM41.8008 21.0391V18.1914H44.1211V12.1094H47.1094V18.1914H49.3594V21.0742H47.1094V31.1641C47.1094 32.8281 47.7891 33.7539 49.1484 33.9414C49.4062 33.9883 49.6641 34.0117 49.9219 34.0117H50.4141L51.082 37H49.8164C46.9336 36.9766 45.1641 35.8984 44.5078 33.7656C44.2734 32.9688 44.1562 31.9844 44.1562 30.8125L44.1211 21.0391H41.8008ZM52.6641 37V12.3906H55.7227V23.1133H58.8867V26.1016H55.7227V37H52.6641ZM60.6445 26.1016V23.1133H63.7734V12.3906H66.8672V37H63.7734V26.1016H60.6445ZM69.6094 31.7969V23.1133C69.6094 22.0117 70.1016 20.9336 71.0859 19.8789C72.3047 18.6133 73.8281 17.9805 75.6562 17.9805V20.8281C74.2734 20.8281 73.3125 21.4023 72.7734 22.5508C72.6094 22.9023 72.5273 23.2539 72.5273 23.6055V31.3398C72.5273 32.207 72.9258 32.9453 73.7227 33.5547C74.2852 33.9766 74.9297 34.1875 75.6562 34.1875V37.0352C73.4297 37.0352 71.707 36.1328 70.4883 34.3281C69.9023 33.4375 69.6094 32.5938 69.6094 31.7969ZM77.168 37.0352V34.1875C78.4102 34.1875 79.3008 33.625 79.8398 32.5C80.0273 32.125 80.1211 31.7617 80.1211 31.4102V23.6055C80.1211 22.6445 79.7109 21.8828 78.8906 21.3203C78.375 20.9922 77.7891 20.8281 77.1328 20.8281V17.9805C79.2891 17.9805 80.9531 18.8594 82.125 20.6172C82.7109 21.4844 83.0039 22.3164 83.0039 23.1133V31.7969C83.0039 32.9453 82.5117 34.0586 81.5273 35.1367C80.3789 36.3789 78.9258 37.0117 77.168 37.0352ZM85.6758 31.9375V18.0156H88.6641V31.5859C88.6641 32.4297 89.0859 33.1328 89.9297 33.6953C90.4922 34.0469 91.1133 34.2227 91.793 34.2227V37.1758C89.543 37.1758 87.8086 36.2969 86.5898 34.5391C85.9805 33.6484 85.6758 32.7812 85.6758 31.9375ZM93.3398 37.1758V34.2227C94.6055 34.2227 95.5312 33.7188 96.1172 32.7109C96.3281 32.3359 96.4336 31.9609 96.4336 31.5859V18.0156H99.4219V31.9375C99.4219 33.0391 98.918 34.1289 97.9102 35.207C96.6914 36.4961 95.168 37.1523 93.3398 37.1758ZM101.461 32.0078L104.238 31.4805C104.238 32.5352 104.789 33.3672 105.891 33.9766C106.43 34.2344 106.945 34.375 107.438 34.3984V37.1758C105.164 37.1758 103.465 36.3555 102.34 34.7148C101.754 33.8477 101.461 32.9453 101.461 32.0078ZM101.637 23.3594C101.637 21.2266 102.609 19.6445 104.555 18.6133C105.492 18.1211 106.43 17.875 107.367 17.875V20.6172C106.289 20.6172 105.457 21.0625 104.871 21.9531C104.566 22.3984 104.414 22.8672 104.414 23.3594C104.414 24.1094 105 24.7188 106.172 25.1875C107.062 25.5625 108.785 26.0547 111.34 26.6641C112.934 26.9922 114.07 27.7773 114.75 29.0195C115.102 29.6758 115.277 30.4141 115.277 31.2344C115.277 33.4844 114.375 35.1484 112.57 36.2266C111.516 36.8594 110.309 37.1758 108.949 37.1758V34.3984C110.027 34.3984 110.93 34.0234 111.656 33.2734C112.172 32.7344 112.43 32.1016 112.43 31.375C112.43 30.4375 111.504 29.6875 109.652 29.125C109.184 28.9844 108.434 28.7852 107.402 28.5273C106.301 28.2695 105.504 28.0586 105.012 27.8945C103.23 27.1914 102.152 26.125 101.777 24.6953C101.684 24.2734 101.637 23.8281 101.637 23.3594ZM108.914 20.6523V17.875C110.93 17.875 112.559 18.625 113.801 20.125C114.574 21.0859 114.961 22.0938 114.961 23.1484L112.184 23.6055C112.184 22.3164 111.48 21.4141 110.074 20.8984C109.652 20.7344 109.266 20.6523 108.914 20.6523ZM117.352 31.7969V23.0781C117.375 22 117.891 20.9336 118.898 19.8789C120.117 18.6367 121.594 18.0039 123.328 17.9805V20.7578C122.203 20.7578 121.324 21.25 120.691 22.2344C120.434 22.6562 120.305 23.043 120.305 23.3945V25.7852H128.18V23.3945C128.18 22.3398 127.641 21.5664 126.562 21.0742C126.07 20.8398 125.566 20.7227 125.051 20.7227V17.9805C126.668 17.9805 128.109 18.5547 129.375 19.7031C130.43 20.7109 130.969 21.8242 130.992 23.043V28.6328H120.305V31.7969C120.305 32.4531 120.68 33.0625 121.43 33.625C122.039 34.0469 122.684 34.2578 123.363 34.2578V37C121.23 37 119.555 36.1328 118.336 34.3984C117.68 33.4844 117.352 32.6172 117.352 31.7969ZM125.051 37V34.2227C126.457 34.2227 127.512 33.6133 128.215 32.3945C128.355 32.1367 128.461 31.8906 128.531 31.6562L131.027 32.5703C130.605 34.1875 129.645 35.4062 128.145 36.2266C127.184 36.7422 126.152 37 125.051 37Z" fill="white"/>
<path d="M1.44141 37H0.441406V38H1.44141V37ZM1.44141 12.3906V11.3906H0.441406V12.3906H1.44141ZM4.5 12.3906H5.5V11.3906H4.5V12.3906ZM4.5 33.9766H3.5V34.9766H4.5V33.9766ZM14.6602 33.9766H15.6602V32.9766H14.6602V33.9766ZM14.6602 37V38H15.6602V37H14.6602ZM2.44141 37V12.3906H0.441406V37H2.44141ZM1.44141 13.3906H4.5V11.3906H1.44141V13.3906ZM3.5 12.3906V33.9766H5.5V12.3906H3.5ZM4.5 34.9766H14.6602V32.9766H4.5V34.9766ZM13.6602 33.9766V37H15.6602V33.9766H13.6602ZM14.6602 36H1.44141V38H14.6602V36ZM18.1055 19.8789L17.3851 19.1853L17.3797 19.1909L17.3744 19.1966L18.1055 19.8789ZM22.6758 17.9805H23.6758V16.9805H22.6758V17.9805ZM22.6758 20.8281V21.8281H23.6758V20.8281H22.6758ZM19.793 22.5508L18.8877 22.1259L18.8868 22.1279L19.793 22.5508ZM20.7422 33.5547L20.1347 34.3491L20.1422 34.3547L20.7422 33.5547ZM22.6758 34.1875H23.6758V33.1875H22.6758V34.1875ZM22.6758 37.0352V38.0352H23.6758V37.0352H22.6758ZM17.5078 34.3281L16.6723 34.8778L16.6791 34.8878L17.5078 34.3281ZM24.1875 37.0352H23.1875V38.0486L24.2008 38.0351L24.1875 37.0352ZM24.1875 34.1875V33.1875H23.1875V34.1875H24.1875ZM26.8594 32.5L25.9649 32.0528L25.9612 32.0603L25.9576 32.0679L26.8594 32.5ZM25.9102 21.3203L26.4757 20.4956L26.4615 20.4859L26.447 20.4767L25.9102 21.3203ZM24.1523 20.8281H23.1523V21.8281H24.1523V20.8281ZM24.1523 17.9805V16.9805H23.1523V17.9805H24.1523ZM29.1445 20.6172L28.3125 21.1719L28.3159 21.177L29.1445 20.6172ZM28.5469 35.1367L29.2812 35.8156L29.2854 35.811L28.5469 35.1367ZM17.6289 31.7969V23.1133H15.6289V31.7969H17.6289ZM17.6289 23.1133C17.6289 22.3356 17.9699 21.4897 18.8365 20.5612L17.3744 19.1966C16.2723 20.3774 15.6289 21.6879 15.6289 23.1133H17.6289ZM18.8258 20.5725C19.8476 19.5114 21.1071 18.9805 22.6758 18.9805V16.9805C20.5882 16.9805 18.8008 17.7152 17.3851 19.1853L18.8258 20.5725ZM21.6758 17.9805V20.8281H23.6758V17.9805H21.6758ZM22.6758 19.8281C21.846 19.8281 21.0732 20.0011 20.405 20.4004C19.7314 20.8029 19.2303 21.3962 18.8877 22.1259L20.6982 22.9757C20.8947 22.557 21.1436 22.2889 21.4309 22.1172C21.7237 21.9423 22.1227 21.8281 22.6758 21.8281V19.8281ZM18.8868 22.1279C18.6674 22.598 18.5469 23.0932 18.5469 23.6055H20.5469C20.5469 23.4146 20.5904 23.2067 20.6992 22.9737L18.8868 22.1279ZM18.5469 23.6055V31.3398H20.5469V23.6055H18.5469ZM18.5469 31.3398C18.5469 32.57 19.1344 33.5841 20.1347 34.349L21.3496 32.7603C20.7562 32.3065 20.5469 31.8441 20.5469 31.3398H18.5469ZM20.1422 34.3547C20.8839 34.911 21.7406 35.1875 22.6758 35.1875V33.1875C22.1578 33.1875 21.7255 33.0422 21.3422 32.7547L20.1422 34.3547ZM21.6758 34.1875V37.0352H23.6758V34.1875H21.6758ZM22.6758 36.0352C20.7725 36.0352 19.3644 35.2905 18.3365 33.7685L16.6791 34.8878C18.0887 36.9751 20.1259 38.0352 22.6758 38.0352V36.0352ZM18.3432 33.7785C17.8292 32.9972 17.6289 32.3426 17.6289 31.7969H15.6289C15.6289 32.8449 16.0146 33.8778 16.6724 34.8777L18.3432 33.7785ZM25.1875 37.0352V34.1875H23.1875V37.0352H25.1875ZM24.1875 35.1875C24.9632 35.1875 25.6892 35.0102 26.3211 34.6111C26.9527 34.2122 27.4255 33.6326 27.7612 32.9321L25.9576 32.0679C25.7541 32.4924 25.5121 32.7566 25.2531 32.9201C24.9944 33.0835 24.654 33.1875 24.1875 33.1875V35.1875ZM27.7538 32.9472C27.9975 32.4599 28.1406 31.9441 28.1406 31.4102H26.1406C26.1406 31.5793 26.0963 31.7901 25.9649 32.0528L27.7538 32.9472ZM28.1406 31.4102V23.6055H26.1406V31.4102H28.1406ZM28.1406 23.6055C28.1406 22.3012 27.5565 21.2367 26.4757 20.4956L25.3446 22.145C25.9044 22.5289 26.1406 22.9878 26.1406 23.6055H28.1406ZM26.447 20.4767C25.759 20.0388 24.9841 19.8281 24.1523 19.8281V21.8281C24.633 21.8281 25.03 21.9455 25.3733 22.164L26.447 20.4767ZM25.1523 20.8281V17.9805H23.1523V20.8281H25.1523ZM24.1523 18.9805C25.9826 18.9805 27.3306 19.6991 28.3125 21.1719L29.9766 20.0625C28.6147 18.0196 26.6346 16.9805 24.1523 16.9805V18.9805ZM28.3159 21.177C28.8247 21.93 29.0234 22.5698 29.0234 23.1133H31.0234C31.0234 22.063 30.6362 21.0387 29.9731 20.0573L28.3159 21.177ZM29.0234 23.1133V31.7969H31.0234V23.1133H29.0234ZM29.0234 31.7969C29.0234 32.6336 28.6718 33.5168 27.8084 34.4624L29.2854 35.811C30.3907 34.6004 31.0234 33.257 31.0234 31.7969H29.0234ZM27.8126 34.4579C26.8583 35.49 25.6699 36.0153 24.1742 36.0352L24.2008 38.0351C26.2207 38.0081 27.9385 37.2678 29.2811 35.8156L27.8126 34.4579ZM32.168 22.4102H31.168V23.4102H32.168V22.4102ZM32.168 19.5273V18.5273H31.168V19.5273H32.168ZM34.4883 19.5273V20.5273H35.4883V19.5273H34.4883ZM35.7891 13.9023L35.0287 13.2529L35.0191 13.2641L35.0098 13.2756L35.7891 13.9023ZM39.5156 12.1797V11.1797H39.5079L39.5002 11.1798L39.5156 12.1797ZM40.8164 12.1797L41.79 12.4081L42.0781 11.1797H40.8164V12.1797ZM40.1484 15.0273V16.0273H40.941L41.122 15.2557L40.1484 15.0273ZM39.4805 15.0273V14.0273H39.4542L39.4279 14.0287L39.4805 15.0273ZM37.4414 17.4883L36.4415 17.4734L36.4414 17.4808V17.4883H37.4414ZM37.4414 19.5625H36.4414V20.5773L37.4561 20.5624L37.4414 19.5625ZM39.832 19.5273H40.832V18.5125L39.8173 18.5275L39.832 19.5273ZM39.832 22.4102V23.4102H40.832V22.4102H39.832ZM37.4414 22.4102V21.4102H36.4414V22.4102H37.4414ZM37.4414 37V38H38.4414V37H37.4414ZM34.4883 37H33.4883V38H34.4883V37ZM34.4883 22.4102H35.4883V21.4102H34.4883V22.4102ZM33.168 22.4102V19.5273H31.168V22.4102H33.168ZM32.168 20.5273H34.4883V18.5273H32.168V20.5273ZM35.4883 19.5273V17.4883H33.4883V19.5273H35.4883ZM35.4883 17.4883C35.4883 16.4167 35.8356 15.44 36.5683 14.5291L35.0098 13.2756C34.0081 14.521 33.4883 15.9348 33.4883 17.4883H35.4883ZM36.5494 14.5518C37.3176 13.6525 38.2849 13.1987 39.531 13.1796L39.5002 11.1798C37.6995 11.2075 36.1824 11.9022 35.0287 13.2529L36.5494 14.5518ZM39.5156 13.1797H40.8164V11.1797H39.5156V13.1797ZM39.8428 11.9513L39.1749 14.799L41.122 15.2557L41.79 12.4081L39.8428 11.9513ZM40.1484 14.0273H39.4805V16.0273H40.1484V14.0273ZM39.4279 14.0287C38.5572 14.0746 37.7603 14.3795 37.1987 15.0573C36.6586 15.7092 36.4551 16.5646 36.4415 17.4734L38.4413 17.5032C38.4512 16.8416 38.5992 16.5018 38.7388 16.3333C38.8568 16.1908 39.0678 16.0504 39.533 16.026L39.4279 14.0287ZM36.4414 17.4883V19.5625H38.4414V17.4883H36.4414ZM37.4561 20.5624L39.8467 20.5272L39.8173 18.5275L37.4267 18.5626L37.4561 20.5624ZM38.832 19.5273V22.4102H40.832V19.5273H38.832ZM39.832 21.4102H37.4414V23.4102H39.832V21.4102ZM36.4414 22.4102V37H38.4414V22.4102H36.4414ZM37.4414 36H34.4883V38H37.4414V36ZM35.4883 37V22.4102H33.4883V37H35.4883ZM34.4883 21.4102H32.168V23.4102H34.4883V21.4102ZM41.8008 21.0391H40.8008V22.0391H41.8008V21.0391ZM41.8008 18.1914V17.1914H40.8008V18.1914H41.8008ZM44.1211 18.1914V19.1914H45.1211V18.1914H44.1211ZM44.1211 12.1094V11.1094H43.1211V12.1094H44.1211ZM47.1094 12.1094H48.1094V11.1094H47.1094V12.1094ZM47.1094 18.1914H46.1094V19.1914H47.1094V18.1914ZM49.3594 18.1914H50.3594V17.1914H49.3594V18.1914ZM49.3594 21.0742V22.0742H50.3594V21.0742H49.3594ZM47.1094 21.0742V20.0742H46.1094V21.0742H47.1094ZM49.1484 33.9414L49.3273 32.9575L49.3063 32.9537L49.2851 32.9508L49.1484 33.9414ZM50.4141 34.0117L51.39 33.7936L51.2152 33.0117H50.4141V34.0117ZM51.082 37V38H52.3302L52.0579 36.7819L51.082 37ZM49.8164 37L49.8083 38H49.8164V37ZM44.5078 33.7656L43.5484 34.0478L43.552 34.0597L44.5078 33.7656ZM44.1562 30.8125L45.1563 30.8125L45.1562 30.8089L44.1562 30.8125ZM44.1211 21.0391L45.1211 21.0355L45.1175 20.0391H44.1211V21.0391ZM42.8008 21.0391V18.1914H40.8008V21.0391H42.8008ZM41.8008 19.1914H44.1211V17.1914H41.8008V19.1914ZM45.1211 18.1914V12.1094H43.1211V18.1914H45.1211ZM44.1211 13.1094H47.1094V11.1094H44.1211V13.1094ZM46.1094 12.1094V18.1914H48.1094V12.1094H46.1094ZM47.1094 19.1914H49.3594V17.1914H47.1094V19.1914ZM48.3594 18.1914V21.0742H50.3594V18.1914H48.3594ZM49.3594 20.0742H47.1094V22.0742H49.3594V20.0742ZM46.1094 21.0742V31.1641H48.1094V21.0742H46.1094ZM46.1094 31.1641C46.1094 32.1171 46.302 33.0022 46.8131 33.6983C47.3437 34.421 48.1204 34.8091 49.0118 34.932L49.2851 32.9508C48.8171 32.8862 48.5743 32.7177 48.4252 32.5146C48.2566 32.285 48.1094 31.875 48.1094 31.1641H46.1094ZM48.9696 34.9253C49.2854 34.9827 49.6031 35.0117 49.9219 35.0117V33.0117C49.725 33.0117 49.5271 32.9939 49.3273 32.9575L48.9696 34.9253ZM49.9219 35.0117H50.4141V33.0117H49.9219V35.0117ZM49.4381 34.2299L50.1061 37.2181L52.0579 36.7819L51.39 33.7936L49.4381 34.2299ZM51.082 36H49.8164V38H51.082V36ZM49.8245 36C48.4963 35.9892 47.5288 35.735 46.8475 35.3198C46.1882 34.9182 45.7258 34.3239 45.4636 33.4715L43.552 34.0597C43.946 35.3402 44.6966 36.3514 45.8068 37.0278C46.895 37.6908 48.2537 37.9873 49.8083 38L49.8245 36ZM45.4672 33.4835C45.2683 32.8072 45.1562 31.9247 45.1562 30.8125H43.1562C43.1562 32.044 43.2786 33.1303 43.5484 34.0478L45.4672 33.4835ZM45.1562 30.8089L45.1211 21.0355L43.1211 21.0427L43.1563 30.8161L45.1562 30.8089ZM44.1211 20.0391H41.8008V22.0391H44.1211V20.0391ZM52.6641 37H51.6641V38H52.6641V37ZM52.6641 12.3906V11.3906H51.6641V12.3906H52.6641ZM55.7227 12.3906H56.7227V11.3906H55.7227V12.3906ZM55.7227 23.1133H54.7227V24.1133H55.7227V23.1133ZM58.8867 23.1133H59.8867V22.1133H58.8867V23.1133ZM58.8867 26.1016V27.1016H59.8867V26.1016H58.8867ZM55.7227 26.1016V25.1016H54.7227V26.1016H55.7227ZM55.7227 37V38H56.7227V37H55.7227ZM60.6445 26.1016H59.6445V27.1016H60.6445V26.1016ZM60.6445 23.1133V22.1133H59.6445V23.1133H60.6445ZM63.7734 23.1133V24.1133H64.7734V23.1133H63.7734ZM63.7734 12.3906V11.3906H62.7734V12.3906H63.7734ZM66.8672 12.3906H67.8672V11.3906H66.8672V12.3906ZM66.8672 37V38H67.8672V37H66.8672ZM63.7734 37H62.7734V38H63.7734V37ZM63.7734 26.1016H64.7734V25.1016H63.7734V26.1016ZM53.6641 37V12.3906H51.6641V37H53.6641ZM52.6641 13.3906H55.7227V11.3906H52.6641V13.3906ZM54.7227 12.3906V23.1133H56.7227V12.3906H54.7227ZM55.7227 24.1133H58.8867V22.1133H55.7227V24.1133ZM57.8867 23.1133V26.1016H59.8867V23.1133H57.8867ZM58.8867 25.1016H55.7227V27.1016H58.8867V25.1016ZM54.7227 26.1016V37H56.7227V26.1016H54.7227ZM55.7227 36H52.6641V38H55.7227V36ZM61.6445 26.1016V23.1133H59.6445V26.1016H61.6445ZM60.6445 24.1133H63.7734V22.1133H60.6445V24.1133ZM64.7734 23.1133V12.3906H62.7734V23.1133H64.7734ZM63.7734 13.3906H66.8672V11.3906H63.7734V13.3906ZM65.8672 12.3906V37H67.8672V12.3906H65.8672ZM66.8672 36H63.7734V38H66.8672V36ZM64.7734 37V26.1016H62.7734V37H64.7734ZM63.7734 25.1016H60.6445V27.1016H63.7734V25.1016ZM71.0859 19.8789L70.3656 19.1853L70.3602 19.1909L70.3549 19.1966L71.0859 19.8789ZM75.6562 17.9805H76.6562V16.9805H75.6562V17.9805ZM75.6562 20.8281V21.8281H76.6562V20.8281H75.6562ZM72.7734 22.5508L71.8682 22.1259L71.8673 22.1279L72.7734 22.5508ZM73.7227 33.5547L73.1152 34.3491L73.1227 34.3547L73.7227 33.5547ZM75.6562 34.1875H76.6562V33.1875H75.6562V34.1875ZM75.6562 37.0352V38.0352H76.6562V37.0352H75.6562ZM70.4883 34.3281L69.6528 34.8778L69.6596 34.8878L70.4883 34.3281ZM77.168 37.0352H76.168V38.0486L77.1813 38.0351L77.168 37.0352ZM77.168 34.1875V33.1875H76.168V34.1875H77.168ZM79.8398 32.5L78.9454 32.0528L78.9417 32.0603L78.938 32.0679L79.8398 32.5ZM78.8906 21.3203L79.4562 20.4956L79.442 20.4859L79.4275 20.4767L78.8906 21.3203ZM77.1328 20.8281H76.1328V21.8281H77.1328V20.8281ZM77.1328 17.9805V16.9805H76.1328V17.9805H77.1328ZM82.125 20.6172L81.2929 21.1719L81.2964 21.177L82.125 20.6172ZM81.5273 35.1367L82.2616 35.8156L82.2658 35.811L81.5273 35.1367ZM70.6094 31.7969V23.1133H68.6094V31.7969H70.6094ZM70.6094 23.1133C70.6094 22.3356 70.9504 21.4897 71.817 20.5612L70.3549 19.1966C69.2527 20.3774 68.6094 21.6879 68.6094 23.1133H70.6094ZM71.8063 20.5725C72.8281 19.5114 74.0875 18.9805 75.6562 18.9805V16.9805C73.5687 16.9805 71.7813 17.7152 70.3656 19.1853L71.8063 20.5725ZM74.6562 17.9805V20.8281H76.6562V17.9805H74.6562ZM75.6562 19.8281C74.8265 19.8281 74.0537 20.0011 73.3855 20.4004C72.7118 20.8029 72.2107 21.3962 71.8682 22.1259L73.6787 22.9757C73.8752 22.557 74.1241 22.2889 74.4114 22.1172C74.7041 21.9423 75.1032 21.8281 75.6562 21.8281V19.8281ZM71.8673 22.1279C71.6479 22.598 71.5273 23.0932 71.5273 23.6055H73.5273C73.5273 23.4146 73.5709 23.2067 73.6796 22.9737L71.8673 22.1279ZM71.5273 23.6055V31.3398H73.5273V23.6055H71.5273ZM71.5273 31.3398C71.5273 32.57 72.1149 33.5841 73.1152 34.349L74.3301 32.7603C73.7367 32.3065 73.5273 31.8441 73.5273 31.3398H71.5273ZM73.1227 34.3547C73.8643 34.911 74.7211 35.1875 75.6562 35.1875V33.1875C75.1383 33.1875 74.706 33.0422 74.3227 32.7547L73.1227 34.3547ZM74.6562 34.1875V37.0352H76.6562V34.1875H74.6562ZM75.6562 36.0352C73.753 36.0352 72.3449 35.2905 71.317 33.7685L69.6596 34.8878C71.0692 36.9751 73.1064 38.0352 75.6562 38.0352V36.0352ZM71.3237 33.7785C70.8097 32.9972 70.6094 32.3426 70.6094 31.7969H68.6094C68.6094 32.8449 68.995 33.8778 69.6529 34.8777L71.3237 33.7785ZM78.168 37.0352V34.1875H76.168V37.0352H78.168ZM77.168 35.1875C77.9437 35.1875 78.6697 35.0102 79.3016 34.6111C79.9332 34.2122 80.406 33.6326 80.7417 32.9321L78.938 32.0679C78.7346 32.4924 78.4926 32.7566 78.2336 32.9201C77.9749 33.0835 77.6344 33.1875 77.168 33.1875V35.1875ZM80.7343 32.9472C80.9779 32.4599 81.1211 31.9441 81.1211 31.4102H79.1211C79.1211 31.5793 79.0767 31.7901 78.9454 32.0528L80.7343 32.9472ZM81.1211 31.4102V23.6055H79.1211V31.4102H81.1211ZM81.1211 23.6055C81.1211 22.3012 80.537 21.2367 79.4562 20.4956L78.3251 22.145C78.8849 22.5289 79.1211 22.9878 79.1211 23.6055H81.1211ZM79.4275 20.4767C78.7395 20.0388 77.9646 19.8281 77.1328 19.8281V21.8281C77.6135 21.8281 78.0105 21.9455 78.3537 22.164L79.4275 20.4767ZM78.1328 20.8281V17.9805H76.1328V20.8281H78.1328ZM77.1328 18.9805C78.963 18.9805 80.3111 19.6991 81.2929 21.1719L82.9571 20.0625C81.5951 18.0196 79.6151 16.9805 77.1328 16.9805V18.9805ZM81.2964 21.177C81.8052 21.93 82.0039 22.5698 82.0039 23.1133H84.0039C84.0039 22.063 83.6167 21.0387 82.9536 20.0573L81.2964 21.177ZM82.0039 23.1133V31.7969H84.0039V23.1133H82.0039ZM82.0039 31.7969C82.0039 32.6336 81.6523 33.5168 80.7889 34.4624L82.2658 35.811C83.3712 34.6004 84.0039 33.257 84.0039 31.7969H82.0039ZM80.7931 34.4579C79.8388 35.49 78.6504 36.0153 77.1546 36.0352L77.1813 38.0351C79.2012 38.0081 80.919 37.2678 82.2616 35.8156L80.7931 34.4579ZM85.6758 18.0156V17.0156H84.6758V18.0156H85.6758ZM88.6641 18.0156H89.6641V17.0156H88.6641V18.0156ZM89.9297 33.6953L89.375 34.5274L89.3872 34.5355L89.3997 34.5433L89.9297 33.6953ZM91.793 34.2227H92.793V33.2227H91.793V34.2227ZM91.793 37.1758V38.1758H92.793V37.1758H91.793ZM86.5898 34.5391L85.7645 35.1038L85.768 35.1088L86.5898 34.5391ZM93.3398 37.1758H92.3398V38.1887L93.3527 38.1757L93.3398 37.1758ZM93.3398 34.2227V33.2227H92.3398V34.2227H93.3398ZM96.1172 32.7109L96.9817 33.2136L96.9853 33.2074L96.9888 33.2012L96.1172 32.7109ZM96.4336 18.0156V17.0156H95.4336V18.0156H96.4336ZM99.4219 18.0156H100.422V17.0156H99.4219V18.0156ZM97.9102 35.207L98.6368 35.8941L98.6407 35.8899L97.9102 35.207ZM86.6758 31.9375V18.0156H84.6758V31.9375H86.6758ZM85.6758 19.0156H88.6641V17.0156H85.6758V19.0156ZM87.6641 18.0156V31.5859H89.6641V18.0156H87.6641ZM87.6641 31.5859C87.6641 32.8348 88.3175 33.8224 89.375 34.5274L90.4844 32.8633C89.8544 32.4432 89.6641 32.0246 89.6641 31.5859H87.6641ZM89.3997 34.5433C90.1252 34.9968 90.9307 35.2227 91.793 35.2227V33.2227C91.2958 33.2227 90.8592 33.097 90.4597 32.8473L89.3997 34.5433ZM90.793 34.2227V37.1758H92.793V34.2227H90.793ZM91.793 36.1758C89.8507 36.1758 88.4324 35.4415 87.4116 33.9693L85.768 35.1088C87.1848 37.1523 89.2352 38.1758 91.793 38.1758V36.1758ZM87.4152 33.9744C86.8879 33.2038 86.6758 32.5301 86.6758 31.9375H84.6758C84.6758 33.0324 85.073 34.0931 85.7645 35.1037L87.4152 33.9744ZM94.3398 37.1758V34.2227H92.3398V37.1758H94.3398ZM93.3398 35.2227C94.9246 35.2227 96.1988 34.5601 96.9817 33.2136L95.2527 32.2083C94.8637 32.8774 94.2864 33.2227 93.3398 33.2227V35.2227ZM96.9888 33.2012C97.2713 32.6988 97.4336 32.1566 97.4336 31.5859H95.4336C95.4336 31.7653 95.3849 31.973 95.2456 32.2207L96.9888 33.2012ZM97.4336 31.5859V18.0156H95.4336V31.5859H97.4336ZM96.4336 19.0156H99.4219V17.0156H96.4336V19.0156ZM98.4219 18.0156V31.9375H100.422V18.0156H98.4219ZM98.4219 31.9375C98.4219 32.7095 98.0743 33.567 97.1796 34.5241L98.6407 35.8899C99.7616 34.6908 100.422 33.3687 100.422 31.9375H98.4219ZM97.1835 34.52C96.1569 35.6059 94.894 36.1558 93.327 36.1759L93.3527 38.1757C95.442 38.1489 97.2259 37.3863 98.6368 35.894L97.1835 34.52ZM101.461 32.0078L101.274 31.0254L100.461 31.1798V32.0078H101.461ZM104.238 31.4805H105.238V30.2727L104.052 30.498L104.238 31.4805ZM105.891 33.9766L105.407 34.8516L105.432 34.8659L105.459 34.8787L105.891 33.9766ZM107.438 34.3984H108.438V33.4449L107.485 33.3996L107.438 34.3984ZM107.438 37.1758V38.1758H108.438V37.1758H107.438ZM102.34 34.7148L101.511 35.2747L101.515 35.2804L102.34 34.7148ZM104.555 18.6133L104.09 17.7279L104.086 17.7298L104.555 18.6133ZM107.367 17.875H108.367V16.875H107.367V17.875ZM107.367 20.6172V21.6172H108.367V20.6172H107.367ZM104.871 21.9531L105.696 22.5178L105.702 22.5103L105.707 22.5027L104.871 21.9531ZM106.172 25.1875L106.56 24.2659L106.552 24.2624L106.543 24.259L106.172 25.1875ZM111.34 26.6641L111.108 27.6368L111.123 27.6404L111.138 27.6435L111.34 26.6641ZM114.75 29.0195L115.632 28.5473L115.627 28.5395L114.75 29.0195ZM112.57 36.2266L112.057 35.3681L112.056 35.3691L112.57 36.2266ZM108.949 37.1758H107.949V38.1758H108.949V37.1758ZM108.949 34.3984V33.3984H107.949V34.3984H108.949ZM111.656 33.2734L112.375 33.9692L112.379 33.9647L111.656 33.2734ZM109.652 29.125L109.943 28.1682L109.94 28.1672L109.652 29.125ZM107.402 28.5273L107.645 27.5572L107.638 27.5554L107.63 27.5537L107.402 28.5273ZM105.012 27.8945L104.645 28.8247L104.67 28.8346L104.695 28.8432L105.012 27.8945ZM101.777 24.6953L100.801 24.9122L100.805 24.9307L100.81 24.949L101.777 24.6953ZM108.914 20.6523H107.914V21.6523H108.914V20.6523ZM108.914 17.875V16.875H107.914V17.875H108.914ZM113.801 20.125L114.58 19.4979L114.571 19.4872L113.801 20.125ZM114.961 23.1484L115.123 24.1352L115.961 23.9973V23.1484H114.961ZM112.184 23.6055H111.184V24.7835L112.346 24.5922L112.184 23.6055ZM110.074 20.8984L109.712 21.8304L109.721 21.834L109.73 21.8373L110.074 20.8984ZM101.647 32.9903L104.425 32.4629L104.052 30.498L101.274 31.0254L101.647 32.9903ZM103.238 31.4805C103.238 32.9759 104.06 34.1068 105.407 34.8516L106.375 33.1015C105.518 32.6276 105.238 32.0944 105.238 31.4805H103.238ZM105.459 34.8787C106.094 35.1821 106.74 35.3663 107.39 35.3973L107.485 33.3996C107.151 33.3837 106.766 33.2867 106.322 33.0744L105.459 34.8787ZM106.438 34.3984V37.1758H108.438V34.3984H106.438ZM107.438 36.1758C105.439 36.1758 104.074 35.4758 103.165 34.1493L101.515 35.2804C102.855 37.2351 104.889 38.1758 107.438 38.1758V36.1758ZM103.168 34.155C102.681 33.4332 102.461 32.7229 102.461 32.0078H100.461C100.461 33.1677 100.827 34.2622 101.511 35.2747L103.168 34.155ZM102.637 23.3594C102.637 22.4499 102.842 21.7082 103.218 21.097C103.595 20.484 104.179 19.9445 105.023 19.4968L104.086 17.7298C102.985 18.3133 102.11 19.0804 101.514 20.0495C100.917 21.0203 100.637 22.1361 100.637 23.3594H102.637ZM105.02 19.4987C105.832 19.0719 106.612 18.875 107.367 18.875V16.875C106.248 16.875 105.152 17.1703 104.09 17.7279L105.02 19.4987ZM106.367 17.875V20.6172H108.367V17.875H106.367ZM107.367 19.6172C105.957 19.6172 104.809 20.2279 104.036 21.4035L105.707 22.5027C106.105 21.8971 106.621 21.6172 107.367 21.6172V19.6172ZM104.046 21.3884C103.639 21.9833 103.414 22.6463 103.414 23.3594H105.414C105.414 23.0881 105.494 22.8135 105.696 22.5178L104.046 21.3884ZM103.414 23.3594C103.414 24.7572 104.535 25.6097 105.8 26.116L106.543 24.259C105.465 23.8278 105.414 23.4616 105.414 23.3594H103.414ZM105.784 26.1091C106.761 26.5206 108.561 27.0292 111.108 27.6368L111.572 25.6914C109.01 25.0802 107.364 24.6044 106.56 24.2659L105.784 26.1091ZM111.138 27.6435C112.492 27.9223 113.356 28.5549 113.873 29.4995L115.627 28.5395C114.785 26.9998 113.375 26.0621 111.541 25.6846L111.138 27.6435ZM113.869 29.4918C114.135 29.9884 114.277 30.5617 114.277 31.2344H116.277C116.277 30.2664 116.069 29.3632 115.631 28.5473L113.869 29.4918ZM114.277 31.2344C114.277 33.1625 113.535 34.4854 112.057 35.3681L113.083 37.085C115.215 35.8115 116.277 33.8063 116.277 31.2344H114.277ZM112.056 35.3691C111.173 35.899 110.147 36.1758 108.949 36.1758V38.1758C110.47 38.1758 111.859 37.8197 113.085 37.0841L112.056 35.3691ZM109.949 37.1758V34.3984H107.949V37.1758H109.949ZM108.949 35.3984C110.288 35.3984 111.453 34.9207 112.374 33.9692L110.938 32.5776C110.407 33.1262 109.766 33.3984 108.949 33.3984V35.3984ZM112.379 33.9647C113.067 33.245 113.43 32.3666 113.43 31.375H111.43C111.43 31.8365 111.277 32.2237 110.934 32.5822L112.379 33.9647ZM113.43 31.375C113.43 30.5257 112.993 29.8413 112.365 29.3324C111.758 28.8411 110.925 28.4664 109.943 28.1682L109.362 30.0818C110.231 30.3461 110.786 30.6276 111.106 30.8864C111.403 31.1275 111.43 31.2868 111.43 31.375H113.43ZM109.94 28.1672C109.447 28.0194 108.678 27.8155 107.645 27.5572L107.16 29.4975C108.189 29.7548 108.92 29.9493 109.365 30.0828L109.94 28.1672ZM107.63 27.5537C106.532 27.2967 105.773 27.0944 105.328 26.9458L104.695 28.8432C105.234 29.0228 106.069 29.2424 107.174 29.501L107.63 27.5537ZM105.379 26.9644C103.798 26.3402 103.016 25.4749 102.745 24.4416L100.81 24.949C101.289 26.7751 102.663 28.0426 104.645 28.8247L105.379 26.9644ZM102.754 24.4784C102.677 24.1335 102.637 23.7613 102.637 23.3594H100.637C100.637 23.895 100.69 24.4134 100.801 24.9122L102.754 24.4784ZM109.914 20.6523V17.875H107.914V20.6523H109.914ZM108.914 18.875C110.644 18.875 111.986 19.5013 113.031 20.7628L114.571 19.4872C113.131 17.7487 111.216 16.875 108.914 16.875V18.875ZM113.022 20.752C113.678 21.5668 113.961 22.3592 113.961 23.1484H115.961C115.961 21.8283 115.471 20.6051 114.58 19.498L113.022 20.752ZM114.799 22.1617L112.021 22.6187L112.346 24.5922L115.123 24.1352L114.799 22.1617ZM113.184 23.6055C113.184 22.768 112.951 21.9962 112.445 21.3473C111.948 20.7095 111.244 20.2622 110.418 19.9596L109.73 21.8373C110.311 22.0503 110.661 22.312 110.867 22.5766C111.065 22.83 111.184 23.1539 111.184 23.6055H113.184ZM110.437 19.9664C109.931 19.7698 109.42 19.6523 108.914 19.6523V21.6523C109.112 21.6523 109.374 21.699 109.712 21.8304L110.437 19.9664ZM117.352 23.0781L116.352 23.0564L116.352 23.0673V23.0781H117.352ZM118.898 19.8789L118.185 19.1785L118.175 19.188L118.898 19.8789ZM123.328 17.9805H124.328V16.9669L123.315 16.9806L123.328 17.9805ZM123.328 20.7578V21.7578H124.328V20.7578H123.328ZM120.691 22.2344L119.85 21.6936L119.844 21.7032L119.838 21.7129L120.691 22.2344ZM120.305 25.7852H119.305V26.7852H120.305V25.7852ZM128.18 25.7852V26.7852H129.18V25.7852H128.18ZM126.562 21.0742L126.133 21.9771L126.14 21.9806L126.147 21.9839L126.562 21.0742ZM125.051 20.7227H124.051V21.7227H125.051V20.7227ZM125.051 17.9805V16.9805H124.051V17.9805H125.051ZM129.375 19.7031L130.066 18.9801L130.057 18.9712L130.047 18.9626L129.375 19.7031ZM130.992 23.043H131.992V23.0334L131.992 23.0237L130.992 23.043ZM130.992 28.6328V29.6328H131.992V28.6328H130.992ZM120.305 28.6328V27.6328H119.305V28.6328H120.305ZM121.43 33.625L120.83 34.425L120.845 34.4364L120.86 34.4472L121.43 33.625ZM123.363 34.2578H124.363V33.2578H123.363V34.2578ZM123.363 37V38H124.363V37H123.363ZM118.336 34.3984L119.154 33.8235L119.148 33.8152L118.336 34.3984ZM125.051 37H124.051V38H125.051V37ZM125.051 34.2227V33.2227H124.051V34.2227H125.051ZM128.215 32.3945L129.081 32.8943L129.087 32.8839L129.093 32.8734L128.215 32.3945ZM128.531 31.6562L128.875 30.7172L127.878 30.3522L127.573 31.3689L128.531 31.6562ZM131.027 32.5703L131.995 32.8227L132.224 31.9437L131.371 31.6313L131.027 32.5703ZM128.145 36.2266L128.617 37.1078L128.624 37.1039L128.145 36.2266ZM118.352 31.7969V23.0781H116.352V31.7969H118.352ZM118.351 23.0999C118.368 22.3484 118.724 21.5084 119.621 20.5698L118.175 19.188C117.057 20.3587 116.382 21.6516 116.352 23.0564L118.351 23.0999ZM119.612 20.5792C120.647 19.5247 121.872 19.0002 123.342 18.9804L123.315 16.9806C121.315 17.0076 119.587 17.7487 118.185 19.1786L119.612 20.5792ZM122.328 17.9805V20.7578H124.328V17.9805H122.328ZM123.328 19.7578C121.847 19.7578 120.658 20.4369 119.85 21.6936L121.533 22.7751C121.99 22.0631 122.56 21.7578 123.328 21.7578V19.7578ZM119.838 21.7129C119.522 22.231 119.305 22.7988 119.305 23.3945H121.305C121.305 23.2872 121.346 23.0815 121.545 22.7558L119.838 21.7129ZM119.305 23.3945V25.7852H121.305V23.3945H119.305ZM120.305 26.7852H128.18V24.7852H120.305V26.7852ZM129.18 25.7852V23.3945H127.18V25.7852H129.18ZM129.18 23.3945C129.18 22.688 128.996 22.0257 128.596 21.4516C128.201 20.8848 127.638 20.4661 126.978 20.1645L126.147 21.9839C126.565 22.1745 126.811 22.3887 126.955 22.5952C127.094 22.7946 127.18 23.0464 127.18 23.3945H129.18ZM126.992 20.1714C126.374 19.8768 125.724 19.7227 125.051 19.7227V21.7227C125.409 21.7227 125.767 21.8029 126.133 21.9771L126.992 20.1714ZM126.051 20.7227V17.9805H124.051V20.7227H126.051ZM125.051 18.9805C126.404 18.9805 127.61 19.4518 128.703 20.4437L130.047 18.9626C128.609 17.6575 126.931 16.9805 125.051 16.9805V18.9805ZM128.684 20.4261C129.587 21.2887 129.975 22.1612 129.992 23.0622L131.992 23.0237C131.962 21.4872 131.273 20.1332 130.066 18.9801L128.684 20.4261ZM129.992 23.043V28.6328H131.992V23.043H129.992ZM130.992 27.6328H120.305V29.6328H130.992V27.6328ZM119.305 28.6328V31.7969H121.305V28.6328H119.305ZM119.305 31.7969C119.305 32.8874 119.942 33.7592 120.83 34.425L122.03 32.825C121.417 32.3658 121.305 32.0189 121.305 31.7969H119.305ZM120.86 34.4472C121.621 34.9739 122.462 35.2578 123.363 35.2578V33.2578C122.905 33.2578 122.457 33.1199 121.999 32.8028L120.86 34.4472ZM122.363 34.2578V37H124.363V34.2578H122.363ZM123.363 36C121.554 36 120.184 35.2894 119.154 33.8235L117.518 34.9734C118.925 36.9762 120.907 38 123.363 38V36ZM119.148 33.8152C118.57 33.0093 118.352 32.3429 118.352 31.7969H116.352C116.352 32.8915 116.79 33.9594 117.524 34.9816L119.148 33.8152ZM126.051 37V34.2227H124.051V37H126.051ZM125.051 35.2227C126.815 35.2227 128.199 34.4223 129.081 32.8943L127.349 31.8948C126.824 32.8042 126.099 33.2227 125.051 33.2227V35.2227ZM129.093 32.8734C129.26 32.5664 129.395 32.256 129.489 31.9436L127.573 31.3689C127.527 31.5252 127.451 31.7071 127.337 31.9157L129.093 32.8734ZM128.187 32.5953L130.683 33.5093L131.371 31.6313L128.875 30.7172L128.187 32.5953ZM130.06 32.3179C129.709 33.6616 128.929 34.6577 127.665 35.3492L128.624 37.1039C130.36 36.1548 131.502 34.7134 131.995 32.8227L130.06 32.3179ZM127.672 35.3454C126.858 35.7822 125.989 36 125.051 36V38C126.316 38 127.509 37.7022 128.617 37.1077L127.672 35.3454Z" fill="black" mask="url(#path-1-outside-1_1_14)"/>
<path d="M1.44141 37H0.441406V38H1.44141V37ZM1.44141 12.3906V11.3906H0.441406V12.3906H1.44141ZM4.5 12.3906H5.5V11.3906H4.5V12.3906ZM4.5 33.9766H3.5V34.9766H4.5V33.9766ZM14.6602 33.9766H15.6602V32.9766H14.6602V33.9766ZM14.6602 37V38H15.6602V37H14.6602ZM2.44141 37V12.3906H0.441406V37H2.44141ZM1.44141 13.3906H4.5V11.3906H1.44141V13.3906ZM3.5 12.3906V33.9766H5.5V12.3906H3.5ZM4.5 34.9766H14.6602V32.9766H4.5V34.9766ZM13.6602 33.9766V37H15.6602V33.9766H13.6602ZM14.6602 36H1.44141V38H14.6602V36ZM18.1055 19.8789L17.3851 19.1853L17.3797 19.1909L17.3744 19.1966L18.1055 19.8789ZM22.6758 17.9805H23.6758V16.9805H22.6758V17.9805ZM22.6758 20.8281V21.8281H23.6758V20.8281H22.6758ZM19.793 22.5508L18.8877 22.1259L18.8868 22.1279L19.793 22.5508ZM20.7422 33.5547L20.1347 34.3491L20.1422 34.3547L20.7422 33.5547ZM22.6758 34.1875H23.6758V33.1875H22.6758V34.1875ZM22.6758 37.0352V38.0352H23.6758V37.0352H22.6758ZM17.5078 34.3281L16.6723 34.8778L16.6791 34.8878L17.5078 34.3281ZM24.1875 37.0352H23.1875V38.0486L24.2008 38.0351L24.1875 37.0352ZM24.1875 34.1875V33.1875H23.1875V34.1875H24.1875ZM26.8594 32.5L25.9649 32.0528L25.9612 32.0603L25.9576 32.0679L26.8594 32.5ZM25.9102 21.3203L26.4757 20.4956L26.4615 20.4859L26.447 20.4767L25.9102 21.3203ZM24.1523 20.8281H23.1523V21.8281H24.1523V20.8281ZM24.1523 17.9805V16.9805H23.1523V17.9805H24.1523ZM29.1445 20.6172L28.3125 21.1719L28.3159 21.177L29.1445 20.6172ZM28.5469 35.1367L29.2812 35.8156L29.2854 35.811L28.5469 35.1367ZM17.6289 31.7969V23.1133H15.6289V31.7969H17.6289ZM17.6289 23.1133C17.6289 22.3356 17.9699 21.4897 18.8365 20.5612L17.3744 19.1966C16.2723 20.3774 15.6289 21.6879 15.6289 23.1133H17.6289ZM18.8258 20.5725C19.8476 19.5114 21.1071 18.9805 22.6758 18.9805V16.9805C20.5882 16.9805 18.8008 17.7152 17.3851 19.1853L18.8258 20.5725ZM21.6758 17.9805V20.8281H23.6758V17.9805H21.6758ZM22.6758 19.8281C21.846 19.8281 21.0732 20.0011 20.405 20.4004C19.7314 20.8029 19.2303 21.3962 18.8877 22.1259L20.6982 22.9757C20.8947 22.557 21.1436 22.2889 21.4309 22.1172C21.7237 21.9423 22.1227 21.8281 22.6758 21.8281V19.8281ZM18.8868 22.1279C18.6674 22.598 18.5469 23.0932 18.5469 23.6055H20.5469C20.5469 23.4146 20.5904 23.2067 20.6992 22.9737L18.8868 22.1279ZM18.5469 23.6055V31.3398H20.5469V23.6055H18.5469ZM18.5469 31.3398C18.5469 32.57 19.1344 33.5841 20.1347 34.349L21.3496 32.7603C20.7562 32.3065 20.5469 31.8441 20.5469 31.3398H18.5469ZM20.1422 34.3547C20.8839 34.911 21.7406 35.1875 22.6758 35.1875V33.1875C22.1578 33.1875 21.7255 33.0422 21.3422 32.7547L20.1422 34.3547ZM21.6758 34.1875V37.0352H23.6758V34.1875H21.6758ZM22.6758 36.0352C20.7725 36.0352 19.3644 35.2905 18.3365 33.7685L16.6791 34.8878C18.0887 36.9751 20.1259 38.0352 22.6758 38.0352V36.0352ZM18.3432 33.7785C17.8292 32.9972 17.6289 32.3426 17.6289 31.7969H15.6289C15.6289 32.8449 16.0146 33.8778 16.6724 34.8777L18.3432 33.7785ZM25.1875 37.0352V34.1875H23.1875V37.0352H25.1875ZM24.1875 35.1875C24.9632 35.1875 25.6892 35.0102 26.3211 34.6111C26.9527 34.2122 27.4255 33.6326 27.7612 32.9321L25.9576 32.0679C25.7541 32.4924 25.5121 32.7566 25.2531 32.9201C24.9944 33.0835 24.654 33.1875 24.1875 33.1875V35.1875ZM27.7538 32.9472C27.9975 32.4599 28.1406 31.9441 28.1406 31.4102H26.1406C26.1406 31.5793 26.0963 31.7901 25.9649 32.0528L27.7538 32.9472ZM28.1406 31.4102V23.6055H26.1406V31.4102H28.1406ZM28.1406 23.6055C28.1406 22.3012 27.5565 21.2367 26.4757 20.4956L25.3446 22.145C25.9044 22.5289 26.1406 22.9878 26.1406 23.6055H28.1406ZM26.447 20.4767C25.759 20.0388 24.9841 19.8281 24.1523 19.8281V21.8281C24.633 21.8281 25.03 21.9455 25.3733 22.164L26.447 20.4767ZM25.1523 20.8281V17.9805H23.1523V20.8281H25.1523ZM24.1523 18.9805C25.9826 18.9805 27.3306 19.6991 28.3125 21.1719L29.9766 20.0625C28.6147 18.0196 26.6346 16.9805 24.1523 16.9805V18.9805ZM28.3159 21.177C28.8247 21.93 29.0234 22.5698 29.0234 23.1133H31.0234C31.0234 22.063 30.6362 21.0387 29.9731 20.0573L28.3159 21.177ZM29.0234 23.1133V31.7969H31.0234V23.1133H29.0234ZM29.0234 31.7969C29.0234 32.6336 28.6718 33.5168 27.8084 34.4624L29.2854 35.811C30.3907 34.6004 31.0234 33.257 31.0234 31.7969H29.0234ZM27.8126 34.4579C26.8583 35.49 25.6699 36.0153 24.1742 36.0352L24.2008 38.0351C26.2207 38.0081 27.9385 37.2678 29.2811 35.8156L27.8126 34.4579ZM32.168 22.4102H31.168V23.4102H32.168V22.4102ZM32.168 19.5273V18.5273H31.168V19.5273H32.168ZM34.4883 19.5273V20.5273H35.4883V19.5273H34.4883ZM35.7891 13.9023L35.0287 13.2529L35.0191 13.2641L35.0098 13.2756L35.7891 13.9023ZM39.5156 12.1797V11.1797H39.5079L39.5002 11.1798L39.5156 12.1797ZM40.8164 12.1797L41.79 12.4081L42.0781 11.1797H40.8164V12.1797ZM40.1484 15.0273V16.0273H40.941L41.122 15.2557L40.1484 15.0273ZM39.4805 15.0273V14.0273H39.4542L39.4279 14.0287L39.4805 15.0273ZM37.4414 17.4883L36.4415 17.4734L36.4414 17.4808V17.4883H37.4414ZM37.4414 19.5625H36.4414V20.5773L37.4561 20.5624L37.4414 19.5625ZM39.832 19.5273H40.832V18.5125L39.8173 18.5275L39.832 19.5273ZM39.832 22.4102V23.4102H40.832V22.4102H39.832ZM37.4414 22.4102V21.4102H36.4414V22.4102H37.4414ZM37.4414 37V38H38.4414V37H37.4414ZM34.4883 37H33.4883V38H34.4883V37ZM34.4883 22.4102H35.4883V21.4102H34.4883V22.4102ZM33.168 22.4102V19.5273H31.168V22.4102H33.168ZM32.168 20.5273H34.4883V18.5273H32.168V20.5273ZM35.4883 19.5273V17.4883H33.4883V19.5273H35.4883ZM35.4883 17.4883C35.4883 16.4167 35.8356 15.44 36.5683 14.5291L35.0098 13.2756C34.0081 14.521 33.4883 15.9348 33.4883 17.4883H35.4883ZM36.5494 14.5518C37.3176 13.6525 38.2849 13.1987 39.531 13.1796L39.5002 11.1798C37.6995 11.2075 36.1824 11.9022 35.0287 13.2529L36.5494 14.5518ZM39.5156 13.1797H40.8164V11.1797H39.5156V13.1797ZM39.8428 11.9513L39.1749 14.799L41.122 15.2557L41.79 12.4081L39.8428 11.9513ZM40.1484 14.0273H39.4805V16.0273H40.1484V14.0273ZM39.4279 14.0287C38.5572 14.0746 37.7603 14.3795 37.1987 15.0573C36.6586 15.7092 36.4551 16.5646 36.4415 17.4734L38.4413 17.5032C38.4512 16.8416 38.5992 16.5018 38.7388 16.3333C38.8568 16.1908 39.0678 16.0504 39.533 16.026L39.4279 14.0287ZM36.4414 17.4883V19.5625H38.4414V17.4883H36.4414ZM37.4561 20.5624L39.8467 20.5272L39.8173 18.5275L37.4267 18.5626L37.4561 20.5624ZM38.832 19.5273V22.4102H40.832V19.5273H38.832ZM39.832 21.4102H37.4414V23.4102H39.832V21.4102ZM36.4414 22.4102V37H38.4414V22.4102H36.4414ZM37.4414 36H34.4883V38H37.4414V36ZM35.4883 37V22.4102H33.4883V37H35.4883ZM34.4883 21.4102H32.168V23.4102H34.4883V21.4102ZM41.8008 21.0391H40.8008V22.0391H41.8008V21.0391ZM41.8008 18.1914V17.1914H40.8008V18.1914H41.8008ZM44.1211 18.1914V19.1914H45.1211V18.1914H44.1211ZM44.1211 12.1094V11.1094H43.1211V12.1094H44.1211ZM47.1094 12.1094H48.1094V11.1094H47.1094V12.1094ZM47.1094 18.1914H46.1094V19.1914H47.1094V18.1914ZM49.3594 18.1914H50.3594V17.1914H49.3594V18.1914ZM49.3594 21.0742V22.0742H50.3594V21.0742H49.3594ZM47.1094 21.0742V20.0742H46.1094V21.0742H47.1094ZM49.1484 33.9414L49.3273 32.9575L49.3063 32.9537L49.2851 32.9508L49.1484 33.9414ZM50.4141 34.0117L51.39 33.7936L51.2152 33.0117H50.4141V34.0117ZM51.082 37V38H52.3302L52.0579 36.7819L51.082 37ZM49.8164 37L49.8083 38H49.8164V37ZM44.5078 33.7656L43.5484 34.0478L43.552 34.0597L44.5078 33.7656ZM44.1562 30.8125L45.1563 30.8125L45.1562 30.8089L44.1562 30.8125ZM44.1211 21.0391L45.1211 21.0355L45.1175 20.0391H44.1211V21.0391ZM42.8008 21.0391V18.1914H40.8008V21.0391H42.8008ZM41.8008 19.1914H44.1211V17.1914H41.8008V19.1914ZM45.1211 18.1914V12.1094H43.1211V18.1914H45.1211ZM44.1211 13.1094H47.1094V11.1094H44.1211V13.1094ZM46.1094 12.1094V18.1914H48.1094V12.1094H46.1094ZM47.1094 19.1914H49.3594V17.1914H47.1094V19.1914ZM48.3594 18.1914V21.0742H50.3594V18.1914H48.3594ZM49.3594 20.0742H47.1094V22.0742H49.3594V20.0742ZM46.1094 21.0742V31.1641H48.1094V21.0742H46.1094ZM46.1094 31.1641C46.1094 32.1171 46.302 33.0022 46.8131 33.6983C47.3437 34.421 48.1204 34.8091 49.0118 34.932L49.2851 32.9508C48.8171 32.8862 48.5743 32.7177 48.4252 32.5146C48.2566 32.285 48.1094 31.875 48.1094 31.1641H46.1094ZM48.9696 34.9253C49.2854 34.9827 49.6031 35.0117 49.9219 35.0117V33.0117C49.725 33.0117 49.5271 32.9939 49.3273 32.9575L48.9696 34.9253ZM49.9219 35.0117H50.4141V33.0117H49.9219V35.0117ZM49.4381 34.2299L50.1061 37.2181L52.0579 36.7819L51.39 33.7936L49.4381 34.2299ZM51.082 36H49.8164V38H51.082V36ZM49.8245 36C48.4963 35.9892 47.5288 35.735 46.8475 35.3198C46.1882 34.9182 45.7258 34.3239 45.4636 33.4715L43.552 34.0597C43.946 35.3402 44.6966 36.3514 45.8068 37.0278C46.895 37.6908 48.2537 37.9873 49.8083 38L49.8245 36ZM45.4672 33.4835C45.2683 32.8072 45.1562 31.9247 45.1562 30.8125H43.1562C43.1562 32.044 43.2786 33.1303 43.5484 34.0478L45.4672 33.4835ZM45.1562 30.8089L45.1211 21.0355L43.1211 21.0427L43.1563 30.8161L45.1562 30.8089ZM44.1211 20.0391H41.8008V22.0391H44.1211V20.0391ZM52.6641 37H51.6641V38H52.6641V37ZM52.6641 12.3906V11.3906H51.6641V12.3906H52.6641ZM55.7227 12.3906H56.7227V11.3906H55.7227V12.3906ZM55.7227 23.1133H54.7227V24.1133H55.7227V23.1133ZM58.8867 23.1133H59.8867V22.1133H58.8867V23.1133ZM58.8867 26.1016V27.1016H59.8867V26.1016H58.8867ZM55.7227 26.1016V25.1016H54.7227V26.1016H55.7227ZM55.7227 37V38H56.7227V37H55.7227ZM60.6445 26.1016H59.6445V27.1016H60.6445V26.1016ZM60.6445 23.1133V22.1133H59.6445V23.1133H60.6445ZM63.7734 23.1133V24.1133H64.7734V23.1133H63.7734ZM63.7734 12.3906V11.3906H62.7734V12.3906H63.7734ZM66.8672 12.3906H67.8672V11.3906H66.8672V12.3906ZM66.8672 37V38H67.8672V37H66.8672ZM63.7734 37H62.7734V38H63.7734V37ZM63.7734 26.1016H64.7734V25.1016H63.7734V26.1016ZM53.6641 37V12.3906H51.6641V37H53.6641ZM52.6641 13.3906H55.7227V11.3906H52.6641V13.3906ZM54.7227 12.3906V23.1133H56.7227V12.3906H54.7227ZM55.7227 24.1133H58.8867V22.1133H55.7227V24.1133ZM57.8867 23.1133V26.1016H59.8867V23.1133H57.8867ZM58.8867 25.1016H55.7227V27.1016H58.8867V25.1016ZM54.7227 26.1016V37H56.7227V26.1016H54.7227ZM55.7227 36H52.6641V38H55.7227V36ZM61.6445 26.1016V23.1133H59.6445V26.1016H61.6445ZM60.6445 24.1133H63.7734V22.1133H60.6445V24.1133ZM64.7734 23.1133V12.3906H62.7734V23.1133H64.7734ZM63.7734 13.3906H66.8672V11.3906H63.7734V13.3906ZM65.8672 12.3906V37H67.8672V12.3906H65.8672ZM66.8672 36H63.7734V38H66.8672V36ZM64.7734 37V26.1016H62.7734V37H64.7734ZM63.7734 25.1016H60.6445V27.1016H63.7734V25.1016ZM71.0859 19.8789L70.3656 19.1853L70.3602 19.1909L70.3549 19.1966L71.0859 19.8789ZM75.6562 17.9805H76.6562V16.9805H75.6562V17.9805ZM75.6562 20.8281V21.8281H76.6562V20.8281H75.6562ZM72.7734 22.5508L71.8682 22.1259L71.8673 22.1279L72.7734 22.5508ZM73.7227 33.5547L73.1152 34.3491L73.1227 34.3547L73.7227 33.5547ZM75.6562 34.1875H76.6562V33.1875H75.6562V34.1875ZM75.6562 37.0352V38.0352H76.6562V37.0352H75.6562ZM70.4883 34.3281L69.6528 34.8778L69.6596 34.8878L70.4883 34.3281ZM77.168 37.0352H76.168V38.0486L77.1813 38.0351L77.168 37.0352ZM77.168 34.1875V33.1875H76.168V34.1875H77.168ZM79.8398 32.5L78.9454 32.0528L78.9417 32.0603L78.938 32.0679L79.8398 32.5ZM78.8906 21.3203L79.4562 20.4956L79.442 20.4859L79.4275 20.4767L78.8906 21.3203ZM77.1328 20.8281H76.1328V21.8281H77.1328V20.8281ZM77.1328 17.9805V16.9805H76.1328V17.9805H77.1328ZM82.125 20.6172L81.2929 21.1719L81.2964 21.177L82.125 20.6172ZM81.5273 35.1367L82.2616 35.8156L82.2658 35.811L81.5273 35.1367ZM70.6094 31.7969V23.1133H68.6094V31.7969H70.6094ZM70.6094 23.1133C70.6094 22.3356 70.9504 21.4897 71.817 20.5612L70.3549 19.1966C69.2527 20.3774 68.6094 21.6879 68.6094 23.1133H70.6094ZM71.8063 20.5725C72.8281 19.5114 74.0875 18.9805 75.6562 18.9805V16.9805C73.5687 16.9805 71.7813 17.7152 70.3656 19.1853L71.8063 20.5725ZM74.6562 17.9805V20.8281H76.6562V17.9805H74.6562ZM75.6562 19.8281C74.8265 19.8281 74.0537 20.0011 73.3855 20.4004C72.7118 20.8029 72.2107 21.3962 71.8682 22.1259L73.6787 22.9757C73.8752 22.557 74.1241 22.2889 74.4114 22.1172C74.7041 21.9423 75.1032 21.8281 75.6562 21.8281V19.8281ZM71.8673 22.1279C71.6479 22.598 71.5273 23.0932 71.5273 23.6055H73.5273C73.5273 23.4146 73.5709 23.2067 73.6796 22.9737L71.8673 22.1279ZM71.5273 23.6055V31.3398H73.5273V23.6055H71.5273ZM71.5273 31.3398C71.5273 32.57 72.1149 33.5841 73.1152 34.349L74.3301 32.7603C73.7367 32.3065 73.5273 31.8441 73.5273 31.3398H71.5273ZM73.1227 34.3547C73.8643 34.911 74.7211 35.1875 75.6562 35.1875V33.1875C75.1383 33.1875 74.706 33.0422 74.3227 32.7547L73.1227 34.3547ZM74.6562 34.1875V37.0352H76.6562V34.1875H74.6562ZM75.6562 36.0352C73.753 36.0352 72.3449 35.2905 71.317 33.7685L69.6596 34.8878C71.0692 36.9751 73.1064 38.0352 75.6562 38.0352V36.0352ZM71.3237 33.7785C70.8097 32.9972 70.6094 32.3426 70.6094 31.7969H68.6094C68.6094 32.8449 68.995 33.8778 69.6529 34.8777L71.3237 33.7785ZM78.168 37.0352V34.1875H76.168V37.0352H78.168ZM77.168 35.1875C77.9437 35.1875 78.6697 35.0102 79.3016 34.6111C79.9332 34.2122 80.406 33.6326 80.7417 32.9321L78.938 32.0679C78.7346 32.4924 78.4926 32.7566 78.2336 32.9201C77.9749 33.0835 77.6344 33.1875 77.168 33.1875V35.1875ZM80.7343 32.9472C80.9779 32.4599 81.1211 31.9441 81.1211 31.4102H79.1211C79.1211 31.5793 79.0767 31.7901 78.9454 32.0528L80.7343 32.9472ZM81.1211 31.4102V23.6055H79.1211V31.4102H81.1211ZM81.1211 23.6055C81.1211 22.3012 80.537 21.2367 79.4562 20.4956L78.3251 22.145C78.8849 22.5289 79.1211 22.9878 79.1211 23.6055H81.1211ZM79.4275 20.4767C78.7395 20.0388 77.9646 19.8281 77.1328 19.8281V21.8281C77.6135 21.8281 78.0105 21.9455 78.3537 22.164L79.4275 20.4767ZM78.1328 20.8281V17.9805H76.1328V20.8281H78.1328ZM77.1328 18.9805C78.963 18.9805 80.3111 19.6991 81.2929 21.1719L82.9571 20.0625C81.5951 18.0196 79.6151 16.9805 77.1328 16.9805V18.9805ZM81.2964 21.177C81.8052 21.93 82.0039 22.5698 82.0039 23.1133H84.0039C84.0039 22.063 83.6167 21.0387 82.9536 20.0573L81.2964 21.177ZM82.0039 23.1133V31.7969H84.0039V23.1133H82.0039ZM82.0039 31.7969C82.0039 32.6336 81.6523 33.5168 80.7889 34.4624L82.2658 35.811C83.3712 34.6004 84.0039 33.257 84.0039 31.7969H82.0039ZM80.7931 34.4579C79.8388 35.49 78.6504 36.0153 77.1546 36.0352L77.1813 38.0351C79.2012 38.0081 80.919 37.2678 82.2616 35.8156L80.7931 34.4579ZM85.6758 18.0156V17.0156H84.6758V18.0156H85.6758ZM88.6641 18.0156H89.6641V17.0156H88.6641V18.0156ZM89.9297 33.6953L89.375 34.5274L89.3872 34.5355L89.3997 34.5433L89.9297 33.6953ZM91.793 34.2227H92.793V33.2227H91.793V34.2227ZM91.793 37.1758V38.1758H92.793V37.1758H91.793ZM86.5898 34.5391L85.7645 35.1038L85.768 35.1088L86.5898 34.5391ZM93.3398 37.1758H92.3398V38.1887L93.3527 38.1757L93.3398 37.1758ZM93.3398 34.2227V33.2227H92.3398V34.2227H93.3398ZM96.1172 32.7109L96.9817 33.2136L96.9853 33.2074L96.9888 33.2012L96.1172 32.7109ZM96.4336 18.0156V17.0156H95.4336V18.0156H96.4336ZM99.4219 18.0156H100.422V17.0156H99.4219V18.0156ZM97.9102 35.207L98.6368 35.8941L98.6407 35.8899L97.9102 35.207ZM86.6758 31.9375V18.0156H84.6758V31.9375H86.6758ZM85.6758 19.0156H88.6641V17.0156H85.6758V19.0156ZM87.6641 18.0156V31.5859H89.6641V18.0156H87.6641ZM87.6641 31.5859C87.6641 32.8348 88.3175 33.8224 89.375 34.5274L90.4844 32.8633C89.8544 32.4432 89.6641 32.0246 89.6641 31.5859H87.6641ZM89.3997 34.5433C90.1252 34.9968 90.9307 35.2227 91.793 35.2227V33.2227C91.2958 33.2227 90.8592 33.097 90.4597 32.8473L89.3997 34.5433ZM90.793 34.2227V37.1758H92.793V34.2227H90.793ZM91.793 36.1758C89.8507 36.1758 88.4324 35.4415 87.4116 33.9693L85.768 35.1088C87.1848 37.1523 89.2352 38.1758 91.793 38.1758V36.1758ZM87.4152 33.9744C86.8879 33.2038 86.6758 32.5301 86.6758 31.9375H84.6758C84.6758 33.0324 85.073 34.0931 85.7645 35.1037L87.4152 33.9744ZM94.3398 37.1758V34.2227H92.3398V37.1758H94.3398ZM93.3398 35.2227C94.9246 35.2227 96.1988 34.5601 96.9817 33.2136L95.2527 32.2083C94.8637 32.8774 94.2864 33.2227 93.3398 33.2227V35.2227ZM96.9888 33.2012C97.2713 32.6988 97.4336 32.1566 97.4336 31.5859H95.4336C95.4336 31.7653 95.3849 31.973 95.2456 32.2207L96.9888 33.2012ZM97.4336 31.5859V18.0156H95.4336V31.5859H97.4336ZM96.4336 19.0156H99.4219V17.0156H96.4336V19.0156ZM98.4219 18.0156V31.9375H100.422V18.0156H98.4219ZM98.4219 31.9375C98.4219 32.7095 98.0743 33.567 97.1796 34.5241L98.6407 35.8899C99.7616 34.6908 100.422 33.3687 100.422 31.9375H98.4219ZM97.1835 34.52C96.1569 35.6059 94.894 36.1558 93.327 36.1759L93.3527 38.1757C95.442 38.1489 97.2259 37.3863 98.6368 35.894L97.1835 34.52ZM101.461 32.0078L101.274 31.0254L100.461 31.1798V32.0078H101.461ZM104.238 31.4805H105.238V30.2727L104.052 30.498L104.238 31.4805ZM105.891 33.9766L105.407 34.8516L105.432 34.8659L105.459 34.8787L105.891 33.9766ZM107.438 34.3984H108.438V33.4449L107.485 33.3996L107.438 34.3984ZM107.438 37.1758V38.1758H108.438V37.1758H107.438ZM102.34 34.7148L101.511 35.2747L101.515 35.2804L102.34 34.7148ZM104.555 18.6133L104.09 17.7279L104.086 17.7298L104.555 18.6133ZM107.367 17.875H108.367V16.875H107.367V17.875ZM107.367 20.6172V21.6172H108.367V20.6172H107.367ZM104.871 21.9531L105.696 22.5178L105.702 22.5103L105.707 22.5027L104.871 21.9531ZM106.172 25.1875L106.56 24.2659L106.552 24.2624L106.543 24.259L106.172 25.1875ZM111.34 26.6641L111.108 27.6368L111.123 27.6404L111.138 27.6435L111.34 26.6641ZM114.75 29.0195L115.632 28.5473L115.627 28.5395L114.75 29.0195ZM112.57 36.2266L112.057 35.3681L112.056 35.3691L112.57 36.2266ZM108.949 37.1758H107.949V38.1758H108.949V37.1758ZM108.949 34.3984V33.3984H107.949V34.3984H108.949ZM111.656 33.2734L112.375 33.9692L112.379 33.9647L111.656 33.2734ZM109.652 29.125L109.943 28.1682L109.94 28.1672L109.652 29.125ZM107.402 28.5273L107.645 27.5572L107.638 27.5554L107.63 27.5537L107.402 28.5273ZM105.012 27.8945L104.645 28.8247L104.67 28.8346L104.695 28.8432L105.012 27.8945ZM101.777 24.6953L100.801 24.9122L100.805 24.9307L100.81 24.949L101.777 24.6953ZM108.914 20.6523H107.914V21.6523H108.914V20.6523ZM108.914 17.875V16.875H107.914V17.875H108.914ZM113.801 20.125L114.58 19.4979L114.571 19.4872L113.801 20.125ZM114.961 23.1484L115.123 24.1352L115.961 23.9973V23.1484H114.961ZM112.184 23.6055H111.184V24.7835L112.346 24.5922L112.184 23.6055ZM110.074 20.8984L109.712 21.8304L109.721 21.834L109.73 21.8373L110.074 20.8984ZM101.647 32.9903L104.425 32.4629L104.052 30.498L101.274 31.0254L101.647 32.9903ZM103.238 31.4805C103.238 32.9759 104.06 34.1068 105.407 34.8516L106.375 33.1015C105.518 32.6276 105.238 32.0944 105.238 31.4805H103.238ZM105.459 34.8787C106.094 35.1821 106.74 35.3663 107.39 35.3973L107.485 33.3996C107.151 33.3837 106.766 33.2867 106.322 33.0744L105.459 34.8787ZM106.438 34.3984V37.1758H108.438V34.3984H106.438ZM107.438 36.1758C105.439 36.1758 104.074 35.4758 103.165 34.1493L101.515 35.2804C102.855 37.2351 104.889 38.1758 107.438 38.1758V36.1758ZM103.168 34.155C102.681 33.4332 102.461 32.7229 102.461 32.0078H100.461C100.461 33.1677 100.827 34.2622 101.511 35.2747L103.168 34.155ZM102.637 23.3594C102.637 22.4499 102.842 21.7082 103.218 21.097C103.595 20.484 104.179 19.9445 105.023 19.4968L104.086 17.7298C102.985 18.3133 102.11 19.0804 101.514 20.0495C100.917 21.0203 100.637 22.1361 100.637 23.3594H102.637ZM105.02 19.4987C105.832 19.0719 106.612 18.875 107.367 18.875V16.875C106.248 16.875 105.152 17.1703 104.09 17.7279L105.02 19.4987ZM106.367 17.875V20.6172H108.367V17.875H106.367ZM107.367 19.6172C105.957 19.6172 104.809 20.2279 104.036 21.4035L105.707 22.5027C106.105 21.8971 106.621 21.6172 107.367 21.6172V19.6172ZM104.046 21.3884C103.639 21.9833 103.414 22.6463 103.414 23.3594H105.414C105.414 23.0881 105.494 22.8135 105.696 22.5178L104.046 21.3884ZM103.414 23.3594C103.414 24.7572 104.535 25.6097 105.8 26.116L106.543 24.259C105.465 23.8278 105.414 23.4616 105.414 23.3594H103.414ZM105.784 26.1091C106.761 26.5206 108.561 27.0292 111.108 27.6368L111.572 25.6914C109.01 25.0802 107.364 24.6044 106.56 24.2659L105.784 26.1091ZM111.138 27.6435C112.492 27.9223 113.356 28.5549 113.873 29.4995L115.627 28.5395C114.785 26.9998 113.375 26.0621 111.541 25.6846L111.138 27.6435ZM113.869 29.4918C114.135 29.9884 114.277 30.5617 114.277 31.2344H116.277C116.277 30.2664 116.069 29.3632 115.631 28.5473L113.869 29.4918ZM114.277 31.2344C114.277 33.1625 113.535 34.4854 112.057 35.3681L113.083 37.085C115.215 35.8115 116.277 33.8063 116.277 31.2344H114.277ZM112.056 35.3691C111.173 35.899 110.147 36.1758 108.949 36.1758V38.1758C110.47 38.1758 111.859 37.8197 113.085 37.0841L112.056 35.3691ZM109.949 37.1758V34.3984H107.949V37.1758H109.949ZM108.949 35.3984C110.288 35.3984 111.453 34.9207 112.374 33.9692L110.938 32.5776C110.407 33.1262 109.766 33.3984 108.949 33.3984V35.3984ZM112.379 33.9647C113.067 33.245 113.43 32.3666 113.43 31.375H111.43C111.43 31.8365 111.277 32.2237 110.934 32.5822L112.379 33.9647ZM113.43 31.375C113.43 30.5257 112.993 29.8413 112.365 29.3324C111.758 28.8411 110.925 28.4664 109.943 28.1682L109.362 30.0818C110.231 30.3461 110.786 30.6276 111.106 30.8864C111.403 31.1275 111.43 31.2868 111.43 31.375H113.43ZM109.94 28.1672C109.447 28.0194 108.678 27.8155 107.645 27.5572L107.16 29.4975C108.189 29.7548 108.92 29.9493 109.365 30.0828L109.94 28.1672ZM107.63 27.5537C106.532 27.2967 105.773 27.0944 105.328 26.9458L104.695 28.8432C105.234 29.0228 106.069 29.2424 107.174 29.501L107.63 27.5537ZM105.379 26.9644C103.798 26.3402 103.016 25.4749 102.745 24.4416L100.81 24.949C101.289 26.7751 102.663 28.0426 104.645 28.8247L105.379 26.9644ZM102.754 24.4784C102.677 24.1335 102.637 23.7613 102.637 23.3594H100.637C100.637 23.895 100.69 24.4134 100.801 24.9122L102.754 24.4784ZM109.914 20.6523V17.875H107.914V20.6523H109.914ZM108.914 18.875C110.644 18.875 111.986 19.5013 113.031 20.7628L114.571 19.4872C113.131 17.7487 111.216 16.875 108.914 16.875V18.875ZM113.022 20.752C113.678 21.5668 113.961 22.3592 113.961 23.1484H115.961C115.961 21.8283 115.471 20.6051 114.58 19.498L113.022 20.752ZM114.799 22.1617L112.021 22.6187L112.346 24.5922L115.123 24.1352L114.799 22.1617ZM113.184 23.6055C113.184 22.768 112.951 21.9962 112.445 21.3473C111.948 20.7095 111.244 20.2622 110.418 19.9596L109.73 21.8373C110.311 22.0503 110.661 22.312 110.867 22.5766C111.065 22.83 111.184 23.1539 111.184 23.6055H113.184ZM110.437 19.9664C109.931 19.7698 109.42 19.6523 108.914 19.6523V21.6523C109.112 21.6523 109.374 21.699 109.712 21.8304L110.437 19.9664ZM117.352 23.0781L116.352 23.0564L116.352 23.0673V23.0781H117.352ZM118.898 19.8789L118.185 19.1785L118.175 19.188L118.898 19.8789ZM123.328 17.9805H124.328V16.9669L123.315 16.9806L123.328 17.9805ZM123.328 20.7578V21.7578H124.328V20.7578H123.328ZM120.691 22.2344L119.85 21.6936L119.844 21.7032L119.838 21.7129L120.691 22.2344ZM120.305 25.7852H119.305V26.7852H120.305V25.7852ZM128.18 25.7852V26.7852H129.18V25.7852H128.18ZM126.562 21.0742L126.133 21.9771L126.14 21.9806L126.147 21.9839L126.562 21.0742ZM125.051 20.7227H124.051V21.7227H125.051V20.7227ZM125.051 17.9805V16.9805H124.051V17.9805H125.051ZM129.375 19.7031L130.066 18.9801L130.057 18.9712L130.047 18.9626L129.375 19.7031ZM130.992 23.043H131.992V23.0334L131.992 23.0237L130.992 23.043ZM130.992 28.6328V29.6328H131.992V28.6328H130.992ZM120.305 28.6328V27.6328H119.305V28.6328H120.305ZM121.43 33.625L120.83 34.425L120.845 34.4364L120.86 34.4472L121.43 33.625ZM123.363 34.2578H124.363V33.2578H123.363V34.2578ZM123.363 37V38H124.363V37H123.363ZM118.336 34.3984L119.154 33.8235L119.148 33.8152L118.336 34.3984ZM125.051 37H124.051V38H125.051V37ZM125.051 34.2227V33.2227H124.051V34.2227H125.051ZM128.215 32.3945L129.081 32.8943L129.087 32.8839L129.093 32.8734L128.215 32.3945ZM128.531 31.6562L128.875 30.7172L127.878 30.3522L127.573 31.3689L128.531 31.6562ZM131.027 32.5703L131.995 32.8227L132.224 31.9437L131.371 31.6313L131.027 32.5703ZM128.145 36.2266L128.617 37.1078L128.624 37.1039L128.145 36.2266ZM118.352 31.7969V23.0781H116.352V31.7969H118.352ZM118.351 23.0999C118.368 22.3484 118.724 21.5084 119.621 20.5698L118.175 19.188C117.057 20.3587 116.382 21.6516 116.352 23.0564L118.351 23.0999ZM119.612 20.5792C120.647 19.5247 121.872 19.0002 123.342 18.9804L123.315 16.9806C121.315 17.0076 119.587 17.7487 118.185 19.1786L119.612 20.5792ZM122.328 17.9805V20.7578H124.328V17.9805H122.328ZM123.328 19.7578C121.847 19.7578 120.658 20.4369 119.85 21.6936L121.533 22.7751C121.99 22.0631 122.56 21.7578 123.328 21.7578V19.7578ZM119.838 21.7129C119.522 22.231 119.305 22.7988 119.305 23.3945H121.305C121.305 23.2872 121.346 23.0815 121.545 22.7558L119.838 21.7129ZM119.305 23.3945V25.7852H121.305V23.3945H119.305ZM120.305 26.7852H128.18V24.7852H120.305V26.7852ZM129.18 25.7852V23.3945H127.18V25.7852H129.18ZM129.18 23.3945C129.18 22.688 128.996 22.0257 128.596 21.4516C128.201 20.8848 127.638 20.4661 126.978 20.1645L126.147 21.9839C126.565 22.1745 126.811 22.3887 126.955 22.5952C127.094 22.7946 127.18 23.0464 127.18 23.3945H129.18ZM126.992 20.1714C126.374 19.8768 125.724 19.7227 125.051 19.7227V21.7227C125.409 21.7227 125.767 21.8029 126.133 21.9771L126.992 20.1714ZM126.051 20.7227V17.9805H124.051V20.7227H126.051ZM125.051 18.9805C126.404 18.9805 127.61 19.4518 128.703 20.4437L130.047 18.9626C128.609 17.6575 126.931 16.9805 125.051 16.9805V18.9805ZM128.684 20.4261C129.587 21.2887 129.975 22.1612 129.992 23.0622L131.992 23.0237C131.962 21.4872 131.273 20.1332 130.066 18.9801L128.684 20.4261ZM129.992 23.043V28.6328H131.992V23.043H129.992ZM130.992 27.6328H120.305V29.6328H130.992V27.6328ZM119.305 28.6328V31.7969H121.305V28.6328H119.305ZM119.305 31.7969C119.305 32.8874 119.942 33.7592 120.83 34.425L122.03 32.825C121.417 32.3658 121.305 32.0189 121.305 31.7969H119.305ZM120.86 34.4472C121.621 34.9739 122.462 35.2578 123.363 35.2578V33.2578C122.905 33.2578 122.457 33.1199 121.999 32.8028L120.86 34.4472ZM122.363 34.2578V37H124.363V34.2578H122.363ZM123.363 36C121.554 36 120.184 35.2894 119.154 33.8235L117.518 34.9734C118.925 36.9762 120.907 38 123.363 38V36ZM119.148 33.8152C118.57 33.0093 118.352 32.3429 118.352 31.7969H116.352C116.352 32.8915 116.79 33.9594 117.524 34.9816L119.148 33.8152ZM126.051 37V34.2227H124.051V37H126.051ZM125.051 35.2227C126.815 35.2227 128.199 34.4223 129.081 32.8943L127.349 31.8948C126.824 32.8042 126.099 33.2227 125.051 33.2227V35.2227ZM129.093 32.8734C129.26 32.5664 129.395 32.256 129.489 31.9436L127.573 31.3689C127.527 31.5252 127.451 31.7071 127.337 31.9157L129.093 32.8734ZM128.187 32.5953L130.683 33.5093L131.371 31.6313L128.875 30.7172L128.187 32.5953ZM130.06 32.3179C129.709 33.6616 128.929 34.6577 127.665 35.3492L128.624 37.1039C130.36 36.1548 131.502 34.7134 131.995 32.8227L130.06 32.3179ZM127.672 35.3454C126.858 35.7822 125.989 36 125.051 36V38C126.316 38 127.509 37.7022 128.617 37.1077L127.672 35.3454Z" fill="black" fill-opacity="0.2" mask="url(#path-1-outside-1_1_14)"/>
<path d="M2.892 58.584L0.348 54.48H1.308L3.612 58.26H5.208V54.48H6.132V58.26H7.728L10.02 54.48H10.992L8.436 58.584L11.304 63H10.332L7.848 59.004H6.132V63H5.208V59.004H3.492L1.008 63H0.036L2.892 58.584ZM14.7038 61.74L19.9838 54.48H20.6798V63H19.8398V55.86L14.6438 63H13.8758V54.48H14.7038V61.74ZM26.2123 56.736C26.1163 57.864 25.9923 58.828 25.8403 59.628C25.6963 60.428 25.5123 61.084 25.2883 61.596C25.0723 62.1 24.8083 62.472 24.4963 62.712C24.1923 62.944 23.8323 63.06 23.4163 63.06L23.2723 62.256C23.4323 62.248 23.5843 62.216 23.7283 62.16C23.8803 62.104 24.0243 62.004 24.1603 61.86C24.2963 61.708 24.4243 61.504 24.5443 61.248C24.6643 60.984 24.7763 60.648 24.8803 60.24C24.9843 59.824 25.0763 59.324 25.1563 58.74C25.2443 58.156 25.3203 57.464 25.3843 56.664L25.5643 54.48H29.8963V63H29.0683V55.224H26.3323L26.2123 56.736ZM36.957 63.06C36.365 63.06 35.821 62.94 35.325 62.7C34.837 62.452 34.417 62.128 34.065 61.728C33.713 61.32 33.441 60.856 33.249 60.336C33.057 59.816 32.961 59.284 32.961 58.74C32.961 58.172 33.061 57.628 33.261 57.108C33.469 56.588 33.753 56.128 34.113 55.728C34.473 55.328 34.897 55.012 35.385 54.78C35.873 54.54 36.401 54.42 36.969 54.42C37.561 54.42 38.101 54.548 38.589 54.804C39.085 55.052 39.505 55.38 39.849 55.788C40.201 56.196 40.473 56.66 40.665 57.18C40.857 57.692 40.953 58.216 40.953 58.752C40.953 59.32 40.849 59.864 40.641 60.384C40.441 60.904 40.161 61.364 39.801 61.764C39.449 62.156 39.029 62.472 38.541 62.712C38.053 62.944 37.525 63.06 36.957 63.06ZM33.801 58.74C33.801 59.204 33.877 59.652 34.029 60.084C34.181 60.508 34.397 60.888 34.677 61.224C34.957 61.552 35.289 61.816 35.673 62.016C36.057 62.208 36.485 62.304 36.957 62.304C37.437 62.304 37.873 62.2 38.265 61.992C38.657 61.784 38.989 61.512 39.261 61.176C39.533 60.84 39.741 60.46 39.885 60.036C40.037 59.612 40.113 59.18 40.113 58.74C40.113 58.276 40.033 57.832 39.873 57.408C39.721 56.976 39.505 56.596 39.225 56.268C38.945 55.94 38.613 55.68 38.229 55.488C37.845 55.288 37.421 55.188 36.957 55.188C36.477 55.188 36.041 55.292 35.649 55.5C35.257 55.7 34.925 55.968 34.653 56.304C34.381 56.64 34.169 57.02 34.017 57.444C33.873 57.868 33.801 58.3 33.801 58.74ZM49.2567 52.008C49.2407 52.392 49.0767 52.7 48.7647 52.932C48.4607 53.156 48.0367 53.268 47.4927 53.268C46.9487 53.268 46.5207 53.156 46.2087 52.932C45.9047 52.7 45.7447 52.392 45.7287 52.008H46.2447C46.2447 52.112 46.2767 52.212 46.3407 52.308C46.4047 52.404 46.4927 52.488 46.6047 52.56C46.7167 52.632 46.8487 52.692 47.0007 52.74C47.1527 52.78 47.3207 52.8 47.5047 52.8C47.8487 52.8 48.1327 52.728 48.3567 52.584C48.5887 52.432 48.7207 52.24 48.7527 52.008H49.2567ZM44.8167 61.74L50.0967 54.48H50.7927V63H49.9527V55.86L44.7567 63H43.9887V54.48H44.8167V61.74ZM59.7319 58.26H61.0279L63.8119 54.48H64.7719L61.7839 58.584L65.0839 63H64.1239L61.0999 59.004H59.7319V63H58.9039V54.48H59.7319V58.26ZM70.6545 63.06C70.0625 63.06 69.5185 62.94 69.0225 62.7C68.5345 62.452 68.1145 62.128 67.7625 61.728C67.4105 61.32 67.1385 60.856 66.9465 60.336C66.7545 59.816 66.6585 59.284 66.6585 58.74C66.6585 58.172 66.7585 57.628 66.9585 57.108C67.1665 56.588 67.4505 56.128 67.8105 55.728C68.1705 55.328 68.5945 55.012 69.0825 54.78C69.5705 54.54 70.0985 54.42 70.6665 54.42C71.2585 54.42 71.7985 54.548 72.2865 54.804C72.7825 55.052 73.2025 55.38 73.5465 55.788C73.8985 56.196 74.1705 56.66 74.3625 57.18C74.5545 57.692 74.6505 58.216 74.6505 58.752C74.6505 59.32 74.5465 59.864 74.3385 60.384C74.1385 60.904 73.8585 61.364 73.4985 61.764C73.1465 62.156 72.7265 62.472 72.2385 62.712C71.7505 62.944 71.2225 63.06 70.6545 63.06ZM67.4985 58.74C67.4985 59.204 67.5745 59.652 67.7265 60.084C67.8785 60.508 68.0945 60.888 68.3745 61.224C68.6545 61.552 68.9865 61.816 69.3705 62.016C69.7545 62.208 70.1825 62.304 70.6545 62.304C71.1345 62.304 71.5705 62.2 71.9625 61.992C72.3545 61.784 72.6865 61.512 72.9585 61.176C73.2305 60.84 73.4385 60.46 73.5825 60.036C73.7345 59.612 73.8105 59.18 73.8105 58.74C73.8105 58.276 73.7305 57.832 73.5705 57.408C73.4185 56.976 73.2025 56.596 72.9225 56.268C72.6425 55.94 72.3105 55.68 71.9265 55.488C71.5425 55.288 71.1185 55.188 70.6545 55.188C70.1745 55.188 69.7385 55.292 69.3465 55.5C68.9545 55.7 68.6225 55.968 68.3505 56.304C68.0785 56.64 67.8665 57.02 67.7145 57.444C67.5705 57.868 67.4985 58.3 67.4985 58.74ZM85.2222 63V56.004L82.1142 61.416H81.6222L78.5142 56.004V63H77.6742V54.48H78.5382L81.8622 60.312L85.2102 54.48H86.0622V63H85.2222ZM89.6848 54.48H96.2608V63H95.4208V55.224H90.5128V63H89.6848V54.48ZM101.787 56.736C101.691 57.864 101.567 58.828 101.415 59.628C101.271 60.428 101.087 61.084 100.863 61.596C100.647 62.1 100.383 62.472 100.071 62.712C99.767 62.944 99.407 63.06 98.991 63.06L98.847 62.256C99.007 62.248 99.159 62.216 99.303 62.16C99.455 62.104 99.599 62.004 99.735 61.86C99.871 61.708 99.999 61.504 100.119 61.248C100.239 60.984 100.351 60.648 100.455 60.24C100.559 59.824 100.651 59.324 100.731 58.74C100.819 58.156 100.895 57.464 100.959 56.664L101.139 54.48H105.471V63H104.643V55.224H101.907L101.787 56.736ZM114.824 62.256V63H109.1V54.48H114.716V55.224H109.94V58.296H114.104V59.004H109.94V62.256H114.824ZM118.692 58.26H119.988L122.772 54.48H123.732L120.744 58.584L124.044 63H123.084L120.06 59.004H118.692V63H117.864V54.48H118.692V58.26ZM125.607 58.68C125.607 58.168 125.695 57.66 125.871 57.156C126.055 56.644 126.319 56.188 126.663 55.788C127.007 55.388 127.431 55.064 127.935 54.816C128.439 54.56 129.011 54.432 129.651 54.432C130.411 54.432 131.059 54.604 131.595 54.948C132.139 55.292 132.539 55.74 132.795 56.292L132.135 56.7C131.999 56.42 131.831 56.184 131.631 55.992C131.439 55.8 131.231 55.644 131.007 55.524C130.783 55.404 130.551 55.32 130.311 55.272C130.071 55.216 129.835 55.188 129.603 55.188C129.091 55.188 128.639 55.292 128.247 55.5C127.855 55.708 127.523 55.98 127.251 56.316C126.987 56.652 126.787 57.032 126.651 57.456C126.515 57.872 126.447 58.296 126.447 58.728C126.447 59.2 126.527 59.652 126.687 60.084C126.855 60.516 127.079 60.9 127.359 61.236C127.647 61.564 127.983 61.828 128.367 62.028C128.759 62.22 129.183 62.316 129.639 62.316C129.879 62.316 130.123 62.288 130.371 62.232C130.627 62.168 130.871 62.072 131.103 61.944C131.343 61.808 131.563 61.644 131.763 61.452C131.963 61.252 132.131 61.012 132.267 60.732L132.963 61.092C132.827 61.412 132.635 61.696 132.387 61.944C132.139 62.184 131.863 62.388 131.559 62.556C131.255 62.724 130.931 62.852 130.587 62.94C130.251 63.028 129.919 63.072 129.591 63.072C129.007 63.072 128.471 62.944 127.983 62.688C127.495 62.432 127.075 62.1 126.723 61.692C126.371 61.276 126.095 60.808 125.895 60.288C125.703 59.76 125.607 59.224 125.607 58.68Z" fill="white"/>
</svg>
